<?xml version="1.0" encoding="UTF-8" standalone="no"?><svg xmlns="http://www.w3.org/2000/svg" xmlns:xlink="http://www.w3.org/1999/xlink" data-name="Layer 1" fill="#000000" height="412.4" preserveAspectRatio="xMidYMid meet" version="1" viewBox="141.9 63.0 241.5 412.4" width="241.5" zoomAndPan="magnify"><g id="change1_1"><path d="M359.24,140.67a16.73,16.73,0,0,0,4.14-33c0-2,0-4-.06-6v0a18.59,18.59,0,1,0-18.53-16.1l-64.92-3.8-70.54-4.14-37.7-2.2a12.2,12.2,0,1,0-14.09,13.29h0q-.57,4.53-.82,9.09v0a14.47,14.47,0,0,0,1.19,28.73h0q.63,4.61,1.57,9.14h0a17.73,17.73,0,1,0,11.25,33.63h0c1.2,2.54,2.48,5,3.84,7.51h0a20.16,20.16,0,1,0,24.19,32l0,0q2.44,2.43,5,4.76a22.13,22.13,0,0,0-5.32,6.74,21.64,21.64,0,0,0-1.88,5.14,21.89,21.89,0,0,0-.59,5.09,22.42,22.42,0,0,0,42.6,9.78q3.57,2.46,7.16,4.9a25.14,25.14,0,0,0-4.92,14.91,24.67,24.67,0,0,0,.14,2.59h0c-4.18,3.32-8.25,6.76-12.2,10.36a10.12,10.12,0,0,0-15.38,11,10,10,0,0,0,1.37,3.06q-4.25,4.68-8.21,9.62a10.11,10.11,0,0,0-14.73,11.53,10,10,0,0,0,2.85,4.68l-.2.31h0q-3.23,4.88-6.2,9.91h0A12,12,0,0,0,174.75,343a12.18,12.18,0,0,0,2.36,1.61h0c-1.2,2.6-2.34,5.22-3.44,7.87v0a14.7,14.7,0,0,0-15.29,24.64,14.54,14.54,0,0,0,5.81,3.13h0q-.69,2.6-1.33,5.19v0a16.73,16.73,0,0,0-5.5,32.89h0q-.32,3.45-.52,6.91v0a18.4,18.4,0,0,0-8.82,5.57,18.6,18.6,0,1,0,32.42,14.5l63.84,8.18,70.09,9,36,4.61a12.19,12.19,0,1,0,12.67-17v0c.17-2.94.28-5.87.32-8.82a14.49,14.49,0,0,0-.72-28.81c-.26,0-.51,0-.76,0h0c-.37-3.17-.82-6.34-1.33-9.5a17.74,17.74,0,0,0-4.28-34.5,17.46,17.46,0,0,0-4.1.17h0q-1-2.94-2-5.85h0a20.17,20.17,0,1,0-16.62-36.1h0q-1.74-3.06-3.57-6.06a22.35,22.35,0,0,0,6.8-12.24c.15-.81.26-1.64.33-2.48a22.42,22.42,0,0,0-32.62-21.68A15.16,15.16,0,0,0,303,285l-.79-.83q-2.4-2.53-4.88-5c-1.65-1.63-3.33-3.24-5-4.81h0a25.1,25.1,0,0,0,4.33-14.07A25.37,25.37,0,0,0,290,243.21a10,10,0,0,0,2.79-1.82,10.12,10.12,0,0,0,2.64-10.93h0q4.27-3.12,8.45-6.39a10.11,10.11,0,0,0,15.13-12,5.78,5.78,0,0,0-.31-.72q4.17-4,8-8.23c.56-.62,1.12-1.25,1.67-1.89a12,12,0,0,0,13.7-6.47,12,12,0,0,0-.56-11.4q2.94-4.72,5.48-9.68a14.7,14.7,0,0,0,12.91-24.53,14.42,14.42,0,0,0-2.37-2.07c.61-2.12,1.18-4.25,1.69-6.39ZM240,84.43l70.54,4.13,35.7,2.09A18.39,18.39,0,0,0,358.29,101v0c.08,2.08.11,4.15.09,6.23h0a16.68,16.68,0,0,0-15.24,13.28l-61.66-3.61-70.55-4.13-37.58-2.2a14.47,14.47,0,0,0-11.68-12.68h0c.18-3.14.48-6.28.88-9.4v0a12.2,12.2,0,0,0,8.57-8.09Zm2.15,183.85h0a26,26,0,0,0,7.19,10.9H233a9.84,9.84,0,0,0-.86-2.26Q237,272.45,242.14,268.28Zm41.75,185.34-70.09-9-33.46-4.28a18.54,18.54,0,0,0-18.43-15.78v0c.11-1.91.26-3.82.43-5.72a16.72,16.72,0,0,0,15.78-16.21l68.53,8.78,70.09,9,30.53,3.91a14.05,14.05,0,0,0-.19,1.47A14.49,14.49,0,0,0,358.39,441h0c0,1.47-.06,2.94-.11,4.4-.06,1.69-.14,3.38-.25,5.06v0a12.2,12.2,0,0,0-8.67,10.73c0,.26,0,.51,0,.77Zm71.74-49.8q.76,4.65,1.31,9.33a14.51,14.51,0,0,0-7.88,6.38l-62.78-8-70.1-9-38.71-5a16.66,16.66,0,0,0-5-8,16.93,16.93,0,0,0-4.73-2.91h0q.72-3,1.53-5.9h0a14.66,14.66,0,0,0,13.46-13.2L247,375.78l70.1,9,20.17,2.59a17.73,17.73,0,0,0,16.3,16.44,16.41,16.41,0,0,0,2.1,0Zm-18.05-21.43-51-6.53-70.09-9-34.15-4.37a14.6,14.6,0,0,0-4.41-7.34h0q1.91-4.65,4-9.22h0A12,12,0,0,0,194.64,335l49.62,6.36,70.09,9L326.8,352a20.16,20.16,0,0,0,16.61,11.39c.57,0,1.13,0,1.68,0h0q1.22,3.3,2.29,6.63h0A17.73,17.73,0,0,0,337.58,382.39ZM329.76,330v0a19.9,19.9,0,0,0-4.64,16.74l-41.24-5.29-70.09-9L194,330a11.72,11.72,0,0,0-1.89-3.42h0q3.28-5.62,6.92-11a10.09,10.09,0,0,0,9-2.08l35.63,0,50.61,0A22.4,22.4,0,0,0,313,326.45a22.17,22.17,0,0,0,13-2.95Q327.91,326.71,329.76,330Zm-30.69-41.93a22.39,22.39,0,0,0-6.35,20.28h-9.07l-70.67,0h-1.7a10.13,10.13,0,0,0-1.15-8q3.47-4.31,7.15-8.44c.39-.43.77-.86,1.17-1.29A10.11,10.11,0,0,0,233,284.19H257.1a29.41,29.41,0,0,0,23.32,0h14.89Q297.21,286.09,299.07,288.06Zm-10.91-8.9h0c.33-.31.67-.63,1-1h0c.34.31.68.62,1,.94Zm4.44-52.8a10.1,10.1,0,0,0-16.74,8.46,29.79,29.79,0,0,0-7.12-.86,28.71,28.71,0,0,0-19.61,7.58c-2.95-2-5.9-4-8.84-6a21.93,21.93,0,0,0,.53-4.83,22.29,22.29,0,0,0-1.5-8.07l13.79-1,46.7-3.25a10.56,10.56,0,0,0,.75,1.93Q296.63,223.42,292.6,226.36Zm22.87-18.86a10.14,10.14,0,0,0-12.76.79,10,10,0,0,0-3,5.11l-6.76.47-56.23,3.92h0a22.4,22.4,0,0,0-28.75-7q-3-2.75-6-5.65h0a20.07,20.07,0,0,0,2-18.51h0l44.78,2.62,70.54,4.13.55,0a11.92,11.92,0,0,0,2.53,4.25,11,11,0,0,0,1.33,1.23C321.11,201.9,318.34,204.75,315.47,207.5Zm26.75-35.39q-2,3.82-4.23,7.51a12,12,0,0,0-18.7,8.8l-30.61-1.79-70.54-4.13-17.09-1h0a20.19,20.19,0,0,0-21.93-6.73c-1.4-2.49-2.71-5.05-3.94-7.64h0a17.72,17.72,0,0,0,7.61-14.56c0-.33,0-.65-.05-1l61,3.57,70.54,4.13,20.21,1.19a14.6,14.6,0,0,0,7.74,11.62Zm-3.09-23.81a14.66,14.66,0,0,0-4.27,7.2l-51.25-3-70.54-4.13-31.37-1.84A17.73,17.73,0,0,0,165,134.83c-.22,0-.44,0-.66,0v0q-.9-4.35-1.53-8.75h0A14.49,14.49,0,0,0,173,115.58l68.58,4,70.55,4.13,30.73,1.8a16.65,16.65,0,0,0,11.44,14.32h0q-.6,2.53-1.32,5.06v0A14.68,14.68,0,0,0,339.13,148.3Z" fill="#e6d1ff"/></g></svg>