<?xml version="1.0" encoding="UTF-8" standalone="no"?><svg xmlns="http://www.w3.org/2000/svg" xmlns:xlink="http://www.w3.org/1999/xlink" fill="#ffffff" height="231" preserveAspectRatio="xMidYMid meet" version="1" viewBox="0.0 0.0 231.0 231.0" width="231" zoomAndPan="magnify"><g id="change1_1"><path d="M117.9,53c-33.7,0-61.1,27.4-61.1,61.1c0,11.8,3.4,23.2,9.7,33.1l1.5,2.3l-5.9,21.2l22.4-5.3l2.1,1.3 c9.4,5.6,20.3,8.6,31.3,8.6c33.7,0,61.1-27.4,61.1-61.1S151.6,53,117.9,53z M152.7,140.4c-0.6,3-7,6.8-11.1,7.9 c-10.2,2.7-24.6-5.1-38.8-17.5c-14.3-12.4-23.9-25.6-22.7-36.1c0.5-4.2,3.5-11.1,6.3-12c2.8-0.9,4.8,0,7.7,0.9 c1.4,1.6,3.2,3.5,5.2,5.8c2.7,3,4.5,5.7,5.6,7.6c0.9,1.6,0.6,3.6-0.8,4.8l-4.9,4.4c-0.9,0.8-1.2,2.1-0.7,3.2 c1.5,3.2,5,9.8,10.3,14.4c5.2,4.6,12.3,7.2,15.7,8.2c1.1,0.4,2.4-0.1,3-1.1l3.7-5.4c1-1.5,3-2.1,4.7-1.4c2,0.9,5,2.3,8.3,4.5 c2.5,1.7,4.7,3.2,6.4,4.4C152.1,135.7,153.3,137.6,152.7,140.4z"/><path d="M115.5,0C51.7,0,0,51.7,0,115.5c0,63.8,51.7,115.5,115.5,115.5c63.8,0,115.5-51.7,115.5-115.5C230.9,51.7,179.2,0,115.5,0z M117.9,187.2c-12.4,0-24.5-3.1-35.3-9.1l-37.5,8.9l9.9-35.7c-6.7-11.3-10.2-24.1-10.2-37.3c0-40.3,32.8-73.1,73.1-73.1 S191,73.8,191,114.1C191,154.4,158.2,187.2,117.9,187.2z"/></g></svg>