<?xml version="1.0" encoding="UTF-8" standalone="no"?><svg xmlns="http://www.w3.org/2000/svg" xmlns:xlink="http://www.w3.org/1999/xlink" data-name="Layer 2" fill="#e6d1ff" height="25.5" preserveAspectRatio="xMidYMid meet" version="1" viewBox="1.4 3.1 29.4 25.5" width="29.4" zoomAndPan="magnify"><g id="change1_1"><path d="M28.671,10.133a4.305,4.305,0,0,0-3.588-3.479,3.391,3.391,0,0,0-3.9-1.433A3.884,3.884,0,0,0,18.61,3.6a3.655,3.655,0,0,0-2.392.6,3.306,3.306,0,0,0-4.357.054,3.932,3.932,0,0,0-4.05,1.575A4.2,4.2,0,0,0,4.853,7.108a4.145,4.145,0,0,0-1,2.511,3.385,3.385,0,0,0-2.183,1.926,3.749,3.749,0,0,0,.322,2.89,4.989,4.989,0,0,0-.018,3.512,3.989,3.989,0,0,0,2.284,2.07,8.1,8.1,0,0,0,.359,1.932c.817,2.642,3.431,3.311,5.149,3.311h.045l-.3,2.327a.5.5,0,0,0,.432.56c.022,0,.043,0,.065,0a.5.5,0,0,0,.5-.437l.373-2.924a.5.5,0,0,0-.141-.414.49.49,0,0,0-.413-.146c-.157.017-3.833.4-4.754-2.575-.865-2.8.021-5.085,2.368-6.114a.5.5,0,1,0-.4-.916,5.328,5.328,0,0,0-3.251,4.322A2.875,2.875,0,0,1,2.9,17.555,4.18,4.18,0,0,1,3,14.6a.509.509,0,0,0-.034-.47,2.942,2.942,0,0,1-.357-2.243A2.653,2.653,0,0,1,4.5,10.458a.5.5,0,0,0,.353-.512A3.271,3.271,0,0,1,5.6,7.771a3.382,3.382,0,0,1,2.5-.963.5.5,0,0,0,.409-.235A2.982,2.982,0,0,1,11.836,5.26c2.01.645,1.594,2.924,1.575,3.021a.5.5,0,0,0,.981.2,3.678,3.678,0,0,0-1.452-3.8,2.463,2.463,0,0,1,2.9.506.5.5,0,0,0,.68.022A2.809,2.809,0,0,1,18.5,4.59,3.134,3.134,0,0,1,20.584,6.1a.5.5,0,0,0,.6.178,2.5,2.5,0,0,1,3.153,1.081.5.5,0,0,0,.395.26,3.331,3.331,0,0,1,3,2.877,2.563,2.563,0,0,1-.582,2.35,2.355,2.355,0,0,1-2.114.271,1.491,1.491,0,1,0-.09,1.005,4.4,4.4,0,0,0,.951.122A2.7,2.7,0,0,0,28.748,11.6a5.1,5.1,0,0,1,.667,3.641A4.174,4.174,0,0,1,27.794,18a1.608,1.608,0,0,1-1.309.251,5.54,5.54,0,0,0-3.119.282A4.351,4.351,0,0,0,20.6,14.608a.5.5,0,0,0-.324.946,3.346,3.346,0,0,1,2.006,4.037c-.4,2.027-1.923,2.248-4.206,2.356a9.333,9.333,0,0,0-2.254.279c-2.417.748-3.54,4.19-3.489,5.905a.5.5,0,0,0,.5.486h.015a.5.5,0,0,0,.485-.515c-.041-1.365.906-4.339,2.784-4.921a8.726,8.726,0,0,1,2.006-.235c2.033-.1,4.563-.215,5.14-3.163.009-.048.011-.092.019-.139a4.912,4.912,0,0,1,2.959-.423,2.616,2.616,0,0,0,2.1-.379A5.186,5.186,0,0,0,30.4,15.418C30.782,13.261,30.025,11.018,28.671,10.133ZM23.6,13.981a.493.493,0,1,1,.492-.493A.493.493,0,0,1,23.6,13.981Z"/></g><g id="change1_2"><path d="M7.543,19.479a.5.5,0,0,0-.911.413,3.985,3.985,0,0,0,3.6,2.113,6.748,6.748,0,0,0,2.491-.547,1.486,1.486,0,1,0-.4-1.01c0,.031.007.06.009.09C8.763,21.959,7.593,19.587,7.543,19.479Zm6.276.477a.493.493,0,1,1-.493.492A.493.493,0,0,1,13.819,19.956Z"/></g><g id="change1_3"><path d="M8.939,12.106a.5.5,0,0,0-1,.092,3.892,3.892,0,0,0,1.42,2.495,5,5,0,0,0,3.2.975,9.326,9.326,0,0,0,1.267-.091,5.132,5.132,0,0,0,4.833-5.5,1.5,1.5,0,1,0-.992.086c.032.924-.164,3.9-3.978,4.426A4.805,4.805,0,0,1,10,13.921,2.923,2.923,0,0,1,8.939,12.106Zm9.1-3.878a.493.493,0,1,1-.493.492A.493.493,0,0,1,18.042,8.228Z"/></g><g id="change1_4"><path d="M24.469,11.428a3.619,3.619,0,0,0,1.164-.2.5.5,0,1,0-.319-.947c-2.22.748-3.594-1.618-3.652-1.72a.5.5,0,0,0-.87.493A4.56,4.56,0,0,0,24.469,11.428Z"/></g><g id="change1_5"><path d="M10.451,7.555a.5.5,0,0,0-.561.43,3.052,3.052,0,0,0,2.031,3.306,1.483,1.483,0,1,0,.248-.972,2.082,2.082,0,0,1-1.287-2.2A.5.5,0,0,0,10.451,7.555ZM13.4,10.667a.493.493,0,1,1-.492.493A.495.495,0,0,1,13.4,10.667Z"/></g><g id="change1_6"><path d="M19.31,18.955a1.493,1.493,0,1,0,0-2.986,1.48,1.48,0,0,0-1.116.511,2.885,2.885,0,0,0-3.58.921.5.5,0,0,0,.814.582,1.9,1.9,0,0,1,2.395-.574c0,.018-.006.034-.006.052A1.5,1.5,0,0,0,19.31,18.955Zm0-1.986a.493.493,0,1,1-.493.492A.494.494,0,0,1,19.31,16.969Z"/></g></svg>