<?xml version="1.0" encoding="UTF-8" standalone="no"?><svg xmlns="http://www.w3.org/2000/svg" xmlns:xlink="http://www.w3.org/1999/xlink" fill="#e6d1ff" height="83.5" preserveAspectRatio="xMidYMid meet" version="1" viewBox="-0.0 -0.2 75.0 83.5" width="75" zoomAndPan="magnify"><g data-name="17" id="change1_1"><path d="M69.413,60.2h-19.5c.4-1.672.83-3.355,1.249-5l.556-2.176c.143-.552.285-1.113.428-1.674l.2-.809c.505,0,1.009-.027,1.505-.066V51.95a3.5,3.5,0,0,0,3.5,3.5h7.1a3.53,3.53,0,0,0,3.5-3.5V44.126a22.568,22.568,0,0,0,3.574-4.517A22.211,22.211,0,0,0,74.74,28.476a22.487,22.487,0,0,0-43.8-7.586,21.628,21.628,0,0,0,.365,15.373A23.756,23.756,0,0,0,34.1,41.341V51.95a3.5,3.5,0,0,0,3.5,3.5h5.878q-.485,1.9-.978,3.789a.763.763,0,0,1-.317.362,3.977,3.977,0,0,0-.733.6H9.07V4.54A4.535,4.535,0,1,0,0,4.54v60.2a4.509,4.509,0,0,0,1.332,3.206,4.459,4.459,0,0,0,3.2,1.324,2.059,2.059,0,0,0,.233-.007c.075.007.152.007.227.007H39.068c-.441,2.306-.882,4.558-1.322,6.79a7.2,7.2,0,0,0,.227,4.5l.75,1.1a5.411,5.411,0,0,0,3.69,1.634,7.125,7.125,0,0,0,1.439-.148,5.337,5.337,0,0,0,3.109-2.319,5.421,5.421,0,0,0,.744-1.854c.607-3.016,1.185-6.114,1.743-9.109l.11-.59H69.41a4.551,4.551,0,0,0,4.53-4.53,4.505,4.505,0,0,0-1.323-3.207A4.554,4.554,0,0,0,69.413,60.2Zm-4.7-8.25a.257.257,0,0,1-.25.25h-7.1a.257.257,0,0,1-.25-.25V49.992a22.185,22.185,0,0,0,6.122-2.334c.516-.29,1.011-.6,1.478-.91ZM37.6,52.2a.251.251,0,0,1-.25-.25V44.9a23.425,23.425,0,0,0,7.712,4.426L44.307,52.2Zm2.093,13.82H5.04a1.133,1.133,0,0,1-.2-.015l-.15.008a.912.912,0,0,1-.148.007,1.287,1.287,0,0,1-1.29-1.28V4.54a1.285,1.285,0,1,1,2.57,0V63.45H40.17C40.011,64.319,39.852,65.18,39.693,66.02Zm7.716-2.953c-.006.206-.3,2.3-.846,5.915-.748,4.719-1.433,7.967-1.825,9.434a2.739,2.739,0,0,1-1.026,1.666,2.049,2.049,0,0,1-1.532.293A2.33,2.33,0,0,1,40.416,77.6l.131-.695q.744-3.915,1.509-7.837c.17-.919.34-1.828.519-2.747q.151-.768.3-1.543c.1-.509.194-1.02.3-1.534.009-.056.021-.109.032-.162s.027-.123.038-.188a1.124,1.124,0,0,1,.427-.7.967.967,0,0,1,.565-.167,1.315,1.315,0,0,1,.263.027l2.293.452a.859.859,0,0,1,.436.181,1.312,1.312,0,0,0,.1.126c.026.029.052.059.07.082A.373.373,0,0,1,47.409,63.067ZM46.9,59.481l-1.342-.308,2.281-9.019,1.364.211Zm-1.608-13.2a19.284,19.284,0,0,1-4.317-2.288,19.945,19.945,0,0,1-6.4-7.636,19,19,0,0,1-1.451-11.785,19.378,19.378,0,1,1,34.39,15.447A20.716,20.716,0,0,1,63.029,44.2a19.583,19.583,0,0,1-1.983,1.189,19.018,19.018,0,0,1-4.228,1.591l-2.733.468a19.143,19.143,0,0,1-3.056.062A19.45,19.45,0,0,1,45.289,46.276ZM70.313,65.643a1.269,1.269,0,0,1-.9.377H50.168c.1-.58.213-1.163.327-1.771a4.144,4.144,0,0,0,.082-.8H69.41a1.286,1.286,0,0,1,1.28,1.29A1.271,1.271,0,0,1,70.313,65.643ZM17.74,55.18l7.48.02a3.263,3.263,0,0,0,3.25-3.25V8.14a3.263,3.263,0,0,0-3.25-3.25h-7.1a3.256,3.256,0,0,0-3.25,3.25V51.95A3.263,3.263,0,0,0,17.74,55.18ZM17.62,8.14a.5.5,0,0,1,.5-.5h7.1a.508.508,0,0,1,.5.5V51.95a.515.515,0,0,1-.5.5h-7.1a.5.5,0,0,1-.5-.5ZM51.975,24.386h0l.123,0h.043a6.452,6.452,0,0,0,6.463-6.18,6.408,6.408,0,1,0-6.63,6.177Zm-2.5-9.117A3.823,3.823,0,0,1,52.2,14.138l.22,0a3.851,3.851,0,0,1-.209,7.7h-.091a3.852,3.852,0,0,1-2.638-6.569ZM62.745,34.851l-.061.041V33.314a6.466,6.466,0,0,0-6.353-6.365q-4.176-.009-8.353.007A6.365,6.365,0,0,0,41.8,32.107a23.024,23.024,0,0,0-.144,2.839l-.069,6.923H62.674Zm-2.674.908-.02,3.573H44.141l.057-3.767c0-2.718.008-.991.012-2.166v0a3.856,3.856,0,0,1,3.807-3.9h.092q3.809-.012,7.617,0a6.89,6.89,0,0,1,1.381.1,3.8,3.8,0,0,1,3.006,3.809C60.12,35.177,60.071,31.964,60.071,35.759Z"/></g></svg>