<?xml version="1.0" encoding="UTF-8" standalone="no"?><svg xmlns="http://www.w3.org/2000/svg" xmlns:xlink="http://www.w3.org/1999/xlink" fill="#e6d1ff" height="114" preserveAspectRatio="xMidYMid meet" version="1" viewBox="0.0 0.0 126.0 114.0" width="126" zoomAndPan="magnify"><g id="change1_1"><path d="M71.701,99.866H68c-0.553,0-1,0.447-1,1s0.447,1,1,1h3.701c0.553,0,1-0.447,1-1S72.254,99.866,71.701,99.866z" fill="inherit"/><path d="M94.463,34.533H66.701c-0.553,0-1,0.448-1,1v31.733c0,0.553,0.447,1,1,1h27.762c0.553,0,1-0.447,1-1V35.533 C95.463,34.981,95.016,34.533,94.463,34.533z M93.463,50.4H81.582V36.533h11.881V50.4z M79.582,36.533V50.4H67.701V36.533H79.582z M67.701,52.4h11.881v13.867H67.701V52.4z M81.582,66.267V52.4h11.881v13.867H81.582z" fill="inherit"/><path d="M126,39.267c0-2.158-1.437-4.088-3.494-4.693c-0.092-0.027-0.187-0.041-0.282-0.041H100.09V21.325 c2.183-0.845,3.701-2.99,3.701-5.392c0-2.68-1.884-5.053-4.479-5.642c-0.073-0.017-0.147-0.025-0.222-0.025H77.754 C75.481,4.274,69.733,0,63,0S50.519,4.274,48.246,10.267H26.91c-0.074,0-0.148,0.008-0.222,0.025 c-2.596,0.589-4.479,2.961-4.479,5.642c0,2.402,1.518,4.546,3.701,5.392v13.208H3.776c-0.096,0-0.19,0.014-0.282,0.041 C1.437,35.179,0,37.108,0,39.267c0,1.897,1.111,3.615,2.776,4.415v61.852c0,0.553,0.447,1,1,1H25.91V113c0,0.553,0.447,1,1,1h72.18 c0.553,0,1-0.447,1-1v-6.467h22.134c0.553,0,1-0.447,1-1V43.682C124.889,42.882,126,41.163,126,39.267z M98.971,12.267 c1.641,0.422,2.82,1.947,2.82,3.667s-1.18,3.245-2.82,3.667H78.366c0.277-1.18,0.439-2.403,0.439-3.667 c0-1.264-0.162-2.487-0.439-3.667H98.971z M63,2c7.612,0,13.806,6.25,13.806,13.933c0,7.683-6.193,13.934-13.806,13.934 s-13.806-6.25-13.806-13.934C49.194,8.25,55.388,2,63,2z M24.209,15.933c0-1.719,1.18-3.244,2.82-3.667h20.604 c-0.277,1.179-0.439,2.403-0.439,3.667c0,1.264,0.162,2.487,0.439,3.667H27.029C25.389,19.178,24.209,17.652,24.209,15.933z M3.932,36.533H25.91V42H3.932C2.788,41.604,2,40.499,2,39.267S2.788,36.93,3.932,36.533z M4.776,104.533V44H25.91v60.533H4.776z M64,86h11.881v26H64V86z M62,112H50.119V86H62V112z M98.09,112H77.881V85c0-0.553-0.447-1-1-1H63H49.119c-0.553,0-1,0.447-1,1v27 H27.91V21.6h20.336C50.519,27.592,56.267,31.867,63,31.867S75.481,27.592,77.754,21.6H98.09V112z M100.09,104.533V44h21.134v60.533 H100.09z M122.068,42H100.09v-5.467h21.979c1.144,0.396,1.932,1.501,1.932,2.733S123.212,41.604,122.068,42z" fill="inherit"/><path d="M116.672,47.6h-12.03c-0.553,0-1,0.448-1,1v44.8c0,0.553,0.447,1,1,1h12.03c0.553,0,1-0.447,1-1V48.6 C117.672,48.048,117.225,47.6,116.672,47.6z M105.642,60.8h10.03V70h-10.03V60.8z M105.642,72h10.03v9.2h-10.03V72z M115.672,49.6 v9.2h-10.03v-9.2H115.672z M105.642,92.4v-9.2h10.03v9.2H105.642z" fill="inherit"/><path d="M54.299,101.866H58c0.553,0,1-0.447,1-1s-0.447-1-1-1h-3.701c-0.553,0-1,0.447-1,1S53.746,101.866,54.299,101.866z" fill="inherit"/><path d="M59.299,34.533H31.537c-0.553,0-1,0.448-1,1v31.733c0,0.553,0.447,1,1,1h27.762c0.553,0,1-0.447,1-1V35.533 C60.299,34.981,59.852,34.533,59.299,34.533z M58.299,50.4H46.418V36.533h11.881V50.4z M44.418,36.533V50.4H32.537V36.533H44.418z M32.537,52.4h11.881v13.867H32.537V52.4z M46.418,66.267V52.4h11.881v13.867H46.418z" fill="inherit"/><path d="M21.358,47.6H9.328c-0.553,0-1,0.448-1,1v44.8c0,0.553,0.447,1,1,1h12.03c0.553,0,1-0.447,1-1V48.6 C22.358,48.048,21.911,47.6,21.358,47.6z M10.328,60.8h10.03V70h-10.03V60.8z M10.328,72h10.03v9.2h-10.03V72z M20.358,49.6v9.2 h-10.03v-9.2H20.358z M10.328,92.4v-9.2h10.03v9.2H10.328z" fill="inherit"/><path d="M53.786,20.018h5.155v5.209c0,0.552,0.447,1,1,1h6.156c0.553,0,1-0.448,1-1v-5.209h5.156c0.553,0,1-0.448,1-1v-6.209 c0-0.552-0.447-1-1-1h-5.156V6.6c0-0.552-0.447-1-1-1h-6.156c-0.553,0-1,0.448-1,1v5.209h-5.155c-0.553,0-1,0.448-1,1v6.209 C52.786,19.57,53.233,20.018,53.786,20.018z M54.786,13.809h5.155c0.553,0,1-0.448,1-1V7.6h4.156v5.209c0,0.552,0.447,1,1,1h5.156 v4.209h-5.156c-0.553,0-1,0.448-1,1v5.209h-4.156v-5.209c0-0.552-0.447-1-1-1h-5.155V13.809z" fill="inherit"/></g></svg>