<?xml version="1.0" encoding="UTF-8" standalone="no"?><svg xmlns="http://www.w3.org/2000/svg" xmlns:xlink="http://www.w3.org/1999/xlink" fill="#000000" height="1080" preserveAspectRatio="xMidYMid meet" version="1" viewBox="-0.4 -0.0 1080.5 1080.0" width="1080.5" zoomAndPan="magnify"><g id="change1_1"><path d="M539.09033,0C244.64832-0.00537-0.14386,242.48016-0.24634,534.2547 C-0.35339,838.86584,238.35199,1079.97864,540.0498,1080c297.54016,0.021,539.44458-241.72876,539.78699-539.44208 C1080.17896,243.11072,836.98895,0.00543,539.09033,0z M974.26093,482.97876c-0.20435-0.95172-0.30206-1.9259-0.49493-2.88043 c-1.51013-7.46747-8.08252-18.36969-3.59808-21.53485c6.50446-4.591,15.37299,3.86737,23.2691,6.54901 c5.45245,1.85175,10.28503,5.4574,15.65094,7.6524c7.74396,3.16772,12.63977,7.5191,8.92041,15.99469 c-1.50543,37.54962-5.35107,74.17499-13.60822,110.22949c-0.75494,3.29669-2.40167,6.51196-2.51929,9.80487 c-0.21497,6.01569-4.7663,7.81616-8.72247,7.71667c-5.9668-0.1499-3.66522-5.96368-3.67871-9.18958 C989.30402,565.25977,983.06335,523.96851,974.26093,482.97876z M288.60089,916.52466 c0.60376-1.28015,1.20746-2.56024,1.81122-3.84021c23.70245,3.3233,47.40491,6.64661,74.97778,10.51251 c-18.17096,5.81061-32.56409,12.6568-47.58795,14.58362C302.9082,939.69061,298.42322,923.73962,288.60089,916.52466z M308.7785,967.80841c8.51746,13.45667,17.80316,26.427,28.73486,42.54028c-22.57959-8.76294-40.48163-18.32812-58.4032-27.89569 c-6.93311-3.70117-6.11261-7.73077-1.61615-12.52142c1.99176-2.12213,3.97668-4.28027,6.18323-6.16626 C298.14435,951.39868,298.59479,951.71942,308.7785,967.80841z M292.48584,906.17889 c-6.172-1.16943-8.93976-4.44055-10.9173-9.98297c-15.77545-44.21472-25.48096-89.7876-30.60046-136.36279 c-1.6496-15.00763-2.0694-30.14825-3.61176-45.17065c-0.83728-8.15503,1.03235-12.33325,10.12616-13.64233 c21.15582-3.04523,42.31201-6.50104,63.14203-11.22766c10.82843-2.45715,13.49408,2.82233,15.29871,10.95215 c7.12982,32.1203,16.7157,63.54602,27.37561,94.62537c12.12103,35.33929,25.92877,70.01147,42.8866,103.3772 c8.26617,16.26447,8.03748,16.38397-9.59796,19.69183c-2.38751,0.44781-4.78381,0.84863-6.64691,1.17773 C357.01288,915.55347,324.56659,912.25665,292.48584,906.17889z M89.55164,473.19556 c0.97137,25.83191,1.96429,51.65863,6.77765,77.14215c3.97052,21.02118,8.19214,41.99518,12.11401,63.02527 c0.58539,3.13916,4.19861,6.60468,0.97723,9.45654c-2.87854,2.54822-6.1817,0.02313-9.28522-1.38654 c-9.70483-4.40833-19.46014-8.73218-29.36139-12.67291c-8.56921-3.41064-12.1792-9.18097-9.94672-18.29034 c2.47681-38.17017,6.50818-76.1922,14.89941-113.62634c0.41931-1.87067,1.66852-3.55164,2.11554-5.42047 c1.05438-4.40784,3.69928-7.27203,8.18463-6.59595C90.82404,465.54999,89.43652,470.13544,89.55164,473.19556z M95.63055,428.49646 c-1.07343-28.63538,14.76031-54.29834,26.50525-81.24786c2.16876-4.97638,5.21234-5.72644,10.39703-3.19281 c43.07642,21.05042,88.92474,33.41595,135.64917,43.12579c3.56366,0.74054,11.18353-1.34015,10.08105,7.05762 c-0.82874,6.31213-1.4494,11.70709-10.22137,13.28412c-42.35785,7.61511-84.75842,15.22821-125.85645,28.47064 c-11.05115,3.56079-22.58167,6.16565-32.95905,11.15167c-13.19159,6.33801-14.79852,0.57208-13.62488-10.41479 C95.80737,434.8017,95.63055,432.83154,95.63055,428.49646z M789.77875,168.37256 c-24.01672-3.49512-47.27887-6.88043-70.54095-10.26569c0.04126-0.7923,0.08252-1.58459,0.12372-2.37689 c12.83362-4.12421,25.62811-8.37543,38.513-12.33264C768.36182,140.17645,781.52533,150.26758,789.77875,168.37256z M769.57477,111.64471c-8.20587-12.89838-17.09259-25.3634-27.42688-40.60376c22.9176,8.09174,41.51508,18.20825,59.93622,28.65936 c4.49536,2.55042,4.06586,6.10022,0.73096,9.59503c-1.67926,1.75983-3.19659,3.68109-4.93939,5.37231 C782.57111,129.51935,780.70477,129.1394,769.57477,111.64471z M785.47125,174.29205 c6.95056,1.18286,9.82703,4.25964,12.04456,10.38287c16.47656,45.49689,26.06555,92.50055,31.11816,140.49524 c1.47693,14.03046,1.87524,28.17395,3.32916,42.20752c0.74579,7.19824-1.79553,10.98053-8.7793,12.21503 c-22.96484,4.05939-45.97095,7.91516-68.85089,12.41077c-9.44678,1.85614-9.32269-5.55664-10.44702-10.32898 c-7.76056-32.94189-17.39307-65.32983-28.39044-97.29718c-12.12805-35.25397-25.97351-69.82324-42.91565-103.10614 c-8.44525-16.59094-7.90338-17.28619,10.11853-18.44366c4.37006-0.2807,8.75061-0.39722,12.89618-0.5791 C725.90399,165.02625,755.72919,169.23065,785.47125,174.29205z M908.98853,355.70831 c-19.02698,5.8927-38.12897,11.49445-57.17377,17.28369c-11.63153,3.53583-13.58643-0.992-14.05334-10.42151 c-2.1485-43.39008-8.31036-86.22552-18.88098-128.35596c-4.34174-17.30432-9.8114-34.32556-14.76794-51.47552 c20.33118,14.84943,35.17828,34.0119,49.78204,53.34485c24.14917,31.96973,44.32678,66.37604,62.82379,101.88342 C922.25977,348.60455,920.0036,352.29694,908.98853,355.70831z M927.61273,361.78101 c10.85974,25.78497,21.66656,51.57562,29.35651,81.50177c-38.41266-11.84778-74.0697-22.0835-110.84167-27.68304 c-3.20276-0.48767-5.09729-2.09088-6.2312-5.18903c-5.9649-16.2981,0.43323-28.78864,17.46326-32.94751 c19.82159-4.84052,39.22595-10.93829,58.32465-18.0816C920.03699,357.7536,924.65039,354.74756,927.61273,361.78101z M832.73438,456.27942c-3.74713,68.23474-14.07727,135.32849-30.61182,201.55951 c-2.66254,10.66559-10.40747,12.68152-18.37433,12.15314c-8.70148-0.57721-5.42181-9.13702-5.41235-14.15033 c0.15027-79.40027-9.26434-157.70074-26.14362-235.19653c-1.77655-8.1568-1.26697-13.88812,10.37518-11.80664 c20.94324,3.74445,42.10999,6.25079,63.19952,9.15686c6.51666,0.89795,7.22797,5.05115,7.04987,10.5257 C832.51611,437.76495,832.73438,447.02576,832.73438,456.27942z M786.67163,688.79144 c-3.23285-1.05615-8.94281,0.84161-7.99518-5.48328c1.02661-6.85168,6.86298-7.21527,12.27319-7.46759 c3.32098-0.15485,5.77545,0.89246,4.80646,5.26959C793.97827,684.90729,794.13123,691.22827,786.67163,688.79144z M789.65509,701.84314c-2.89209,8.06537-5.68506,16.16644-8.51965,24.25238c-0.97705-0.06207-1.95398-0.12402-2.93097-0.18604 c0-8.68054,0.0011-17.36115-0.00055-26.04169c-0.00085-4.53412,2.06146-5.90613,6.43713-4.63098 C788.12488,696.25208,791.41425,696.93677,789.65509,701.84314z M584.54926,670.25464 c-10.3526,0.29846-8.7652-7.09418-8.37909-13.12762c2.49225-38.94183,3.01923-77.93536,5.69116-116.93634 c0-38.99353,0.22284-77.98932-0.17242-116.97876c-0.08777-8.66125,2.2179-11.34119,11.30121-11.95544 c36.91327-2.49628,74.03351-2.26282,110.729-7.82233c1.91064-0.28949,3.89337-0.1087,5.84271-0.13715 c30.15778-0.44019,32.19763,0.70294,38.37,29.80078c9.76239,46.02264,15.40552,92.60962,19.82465,139.47211 c2.70312,28.66541,0.67761,57.51355,5.12811,85.9704c1.75159,11.19904-3.69318,13.638-13.60876,15.2384 C700.75677,683.22406,642.82831,668.57458,584.54926,670.25464z M661.75684,679.48425 c-25.67255,3.70337-51.22961,7.00006-77.04633,5.72998c-3.50726-0.17249-8.61243,1.41125-8.42566-4.93414 c0.1474-5.0097,4.28552-4.6062,7.53949-4.46326C609.80542,676.95813,635.78015,678.24323,661.75684,679.48425z M570.9693,658.17523 c0.17383,9.02094-3.30737,11.89941-12.16681,11.43414c-14.10803-0.74097-28.31024-1.04327-42.40289-0.26599 c-10.13696,0.55914-13.59064-2.34161-13.43793-12.88141c0.56549-39.02454,5.92963-195.1037,5.547-234.14618 c-0.0824-8.40393,2.68152-11.03162,10.90515-10.66962c13.63721,0.60034,27.37476,1.00531,40.96277,0.01727 c12.06311-0.87714,16.14117,2.73993,15.57941,15.27917c-2.79572,62.40039-0.68701,124.92432-4.35193,187.32489 C570.74652,628.86902,570.68719,643.54639,570.9693,658.17523z M484.53442,670.41376 c-42.84882,1.37921-85.67279,3.71704-128.47656,6.20422c-14.98566,0.87073-20.50684-5.36816-23.59003-20.07684 C317.16888,583.5564,310.5033,509.672,306.74786,435.40765c-1.40167-27.71759-0.89929-25.94464,26.35577-29.74243 c27.99805-3.90125,55.37451-0.56415,83.00128,0.89545c23.1012,1.22046,51.07776,3.53381,75.03937,4.68213 c3.79395,0.18182,6.77112,3.31708,6.77106,7.11536l-0.00653,237.19397C498.05103,665.80737,495.99689,670.0448,484.53442,670.41376z M489.30743,685.18396c-24.48669-1.039-48.9649-2.27747-73.44586-3.45154c0.00153-0.86157,0.00299-1.72314,0.00452-2.58472 c24.56866-1.13171,49.13501-2.32184,73.70905-3.32141c3.08984-0.12573,7.34406-1.0025,7.73035,4.07971 C497.77643,686.10278,492.92017,685.33728,489.30743,685.18396z M245.54791,679.54626 c-0.81567-4.84326-2.01465-11.34106,7.25653-9.88672c16.18231,2.53851,32.4278,4.67334,48.64368,6.99896 c7.10565,1.01898,14.20361,2.09113,21.30505,3.1391c0.15521,0.88568,0.31036,1.7713,0.46558,2.65698 c-23.98236,4.58905-47.82495,10.41705-72.01709,13.14594C241.7749,696.66394,246.51459,685.28607,245.54791,679.54626z M314.41919,671.83484c-19.30334-4.39856-39.09979-6.92902-58.81238-9.1084c-9.63031-1.06476-10.62384-5.63763-9.63525-13.49121 c1.09479-8.69702,1.36438-17.49805,1.99335-26.25372c2.16321-67.86285,12.77588-134.46838,29.12659-200.3009 c2.58521-10.40875,8.83673-11.60797,16.88599-11.10382c9.25494,0.57977,6.05035,8.66998,6.55481,13.47864 c2.6416,25.18311,1.14178,50.50732,3.26849,75.85663c4.46741,53.24927,11.60535,105.9845,22.66022,158.18707 C328.9989,671.08356,328.28259,674.9939,314.41919,671.83484z M295.71558,386.13507c-5.5694-0.6571-7.63849-3.479-5.69226-8.90985 c2.84839-7.94812,5.68994-15.89874,8.53442-23.84827c0.95557,0.25653,1.91119,0.51306,2.86676,0.76953 c0,8.16162,0.05695,16.32385-0.02515,24.48462C301.36108,382.4389,301.91327,386.86621,295.71558,386.13507z M292.04773,391.52856 c4.21259,0.43048,7.7771,1.18317,7.6095,6.48535c-0.2182,6.63794-5.06982,6.03278-9.43042,6.03168 c-3.28162-0.00085-7.5592,0.80774-6.61847-4.73883C284.37378,394.79437,286.11938,390.92279,292.04773,391.52856z M494.60175,404.39117c-26.18622,0.58301-52.18518-2.03424-78.19464-5.51422c26.26105-0.20764,52.26172-3.30969,78.3736-4.26965 c3.55035-0.13055,8.57404-1.24023,8.45142,4.94104C503.11243,405.57953,498.20361,404.31097,494.60175,404.39117z M563.16461,685.2525c-9.23181,0.03192-18.46387,0.01117-27.69586,0.01117c0-0.02118-0.00006-0.04248-0.00018-0.06372 c-8.74609,0-17.49298,0.06354-26.23798-0.03461c-3.03912-0.03406-5.90381-0.72766-5.88776-4.71173 c0.01587-3.94818,2.85425-4.72803,5.89783-4.73914c17.97748-0.0658,35.95544-0.05164,53.93298,0.01215 c3.03253,0.01074,6.01544,0.63837,5.87933,4.63422C568.92889,684.0061,566.42444,685.24115,563.16461,685.2525z M568.29559,703.28052c-2.63208,46.19977-4.82996,92.42444-7.48547,138.62268c-1.08942,18.95398-3.29291,37.8454-4.29498,56.80206 c-0.35651,6.74353-2.16382,9.84662-9.26117,9.26758c-5.32599-0.43439-10.71661-0.07257-16.07849-0.07214 c-24.62842,0.00195-24.92639,0.00476-25.23712-25.33057c-0.34656-28.26294-2.69867-146.21808-3.13568-176.91901 c-0.12817-9.00488,1.72815-13.31659,11.92743-12.72388c14.57574,0.84705,29.24573,0.62592,43.85278,0.15594 C566.4223,692.83087,568.72406,695.75995,568.29559,703.28052z M516.25299,394.59576 c9.23395-0.04755,18.46838-0.01556,27.70258-0.01556c0.00006-0.0188,0.00006-0.0376,0.00006-0.0564 c7.77643,0,15.55603-0.13037,23.32794,0.05774c3.60724,0.08722,8.42242-0.99854,8.26801,5.18024 c-0.11591,4.63928-3.64587,5.14581-7.16052,5.40399c-17.48816,1.28455-34.97064,0.94623-52.44067-0.34644 c-2.90662-0.21509-5.98505-0.58423-6.2337-4.52802C509.42194,395.61688,512.50812,394.61499,516.25299,394.59576z M582.31091,398.92517c0.48779-5.10498,4.68146-4.44012,7.76727-3.99969c22.09485,3.15356,44.40533,2.26123,66.47894,4.07965 c-22.02197,6.63062-44.38348,4.4577-66.50836,5.57477C586.21625,404.77338,581.73792,404.92267,582.31091,398.92517z M832.72955,409.7533c-0.79572,4.95984-5.41229,1.3855-8.45331,0.93384c-24.29749-3.60846-48.60406-7.1557-76.4649-11.24353 c27.63556-5.04395,51.78326-9.51355,75.9657-13.78735c3.06738-0.54211,7.86823-2.26624,8.55359,2.45245 C833.3645,395.2262,833.85828,402.71783,832.72955,409.7533z M737.5155,383.00464 c2.04498,7.99121-0.83069,12.16687-9.28833,12.11658c-5.85193-0.03479-11.70416-0.00665-17.55627-0.00665 c-39.86621-1.79541-79.58911-6.81885-119.59753-5.64941c-6.966,0.20355-9.37189-2.34564-9.25745-9.27686 c1.08728-65.87439-1.84271-131.69012-3.33704-197.52515c-0.19171-8.44568,2.82098-10.58936,10.85638-10.99683 c19.91266-1.00983,39.82025-2.69714,59.61951-5.04401c6.63159-0.78607,9.66516,1.27527,12.41516,6.66974 C695.40723,240.06055,718.98889,310.61127,737.5155,383.00464z M585.67987,166.56506 c-4.26233,0.62598-7.83978-0.28638-8.05267-5.75372c-0.22473-5.76892,3.67621-6.13959,7.79205-5.93359 c20.69427,1.03595,41.38385,2.16479,62.07501,3.26105C627.36005,165.59607,606.20764,163.55035,585.67987,166.56506z M641.1441,151.98041c-19.93994-0.83801-39.86896-1.93658-59.80151-2.94794c-3.5636-0.18085-4.98724-2.27759-5.2132-5.65625 c-2.00397-29.9646-4.05023-59.92639-6.29974-93.06635c32.84503,28.47913,55.54883,60.30334,75.17017,94.62793 C648.11853,150.39343,646.36682,152.19995,641.1441,151.98041z M564.75256,166.73456 c-6.29718-0.00366-12.59442-0.00098-18.89166-0.00098c0,0.03314-0.00006,0.06622-0.00006,0.09937 c-4.84418,0-9.69458,0.15076-14.53015-0.05328c-3.20081-0.13501-7.39569,0.43512-6.77698-4.94098 c0.38837-3.37463,0.88513-7.26147,5.41626-7.30817c12.10205-0.12482,24.2088-0.01825,36.31049,0.18823 c3.72296,0.06348,4.42749,2.87292,4.61548,6.06195C571.16266,165.30463,568.72778,166.73694,564.75256,166.73456z M535.26953,173.04388c1.4342,0.22778,2.92169,0.14716,4.38501,0.15936c32.87177,0.27399,33.17303,0.26691,33.82208,34.23401 c0.49396,25.85016,2.27063,139.05573,2.83099,169.78052c0.18976,10.40332-4.21826,12.13416-13.19421,11.59308 c-14.09399-0.84961-28.26562-1.09314-42.37817-0.68542c-7.96936,0.23022-10.16217-2.68658-9.78516-10.18878 c1.61517-32.14557,2.40741-64.33765,4.37903-96.45874c2.00037-32.59009,5.39673-65.09467,7.3858-97.6853 C523.28107,174.51672,526.82184,171.70239,535.26953,173.04388z M508.06165,166.66174 c-25.9917-1.72308-51.96527-3.72083-77.94495-5.62537c0.16296-1.11517,0.32599-2.23041,0.48901-3.3457 c25.66241-1.12494,51.32037-2.3819,76.9917-3.24097c4.12415-0.13806,10.40637-2.52917,10.5957,5.74622 C518.37512,168.151,512.59406,166.96228,508.06165,166.66174z M506.61621,172.15601 c6.70599-0.01593,10.60162,0.89288,9.9895,9.76373c-4.4964,65.15802-8.47125,130.35284-12.35339,195.55139 c-0.4328,7.26831-1.49463,11.9519-10.44775,11.78925c-41.9375-0.7619-83.7149,2.3266-118.50049,5.77185 c-25.11407,0.82581-42.65656-4.17529-60.58154-5.68585c-10.40601-0.87689-6.49335-8.14313-6.94458-14.09863 c-5.19196-68.53058,32.62195-122.13727,60.94891-179.31384c12.96008-26.15912,28.17548-39.01001,59.42975-30.55475 C453.35785,172.19684,480.24414,172.21881,506.61621,172.15601z M316.89111,283.23993 c-3.31213-16.57043,2.23395-32.48248,4.88922-48.33337c3.25763-19.44708,9.48621-38.37854,13.74115-57.68481 c1.75049-7.94293,5.13501-11.62927,13.58405-11.52728c10.09796,0.12189,19.97638-4.42834,32.62762-1.52985 C356.83136,203.34558,336.12164,242.67395,316.89111,283.23993z M341.70959,137.05237 c-2.11926,4.75195-6.31055,3.92279-9.99036,2.43976c-8.88013-3.5788-18.48499-5.63177-26.93604-12.34851 c17.0813-13.35992,34.38452-25.38812,57.28027-36.76709C354.16656,108.53644,348.04645,122.84277,341.70959,137.05237z M304.88739,135.01874c6.97797,3.37219,14.34973,5.91888,21.44427,9.06396c4.06702,1.80298,10.81531,1.18549,9.89319,8.34906 c-0.85583,6.64941-5.68292,9.48413-12.06561,10.51721c-19.16473,3.10217-38.26788,6.59235-57.45239,9.56018 c-5.11536,0.79132-9.82056,4.84192-17.91901,0.95642c14.89807-12.93433,28.6955-24.99243,42.59528-36.93146 C295.42743,133.06036,299.79352,132.55707,304.88739,135.01874z M325.94733,169.02081 c1.28314-0.13458,2.67523,0.76996,4.49048,1.33899c-13.78253,47.21497-21.14874,95.28741-26.86292,143.89276 c-2.55432,21.72687-13.08398,42.51617-19.99792,63.72968c-1.54456,4.7392-4.57263,5.06555-9.15887,4.12781 c-46.75812-9.5611-92.83551-21.14014-136.20172-41.86121c-7.9176-3.78314-9.36322-6.6972-4.95044-14.80164 c26.89539-49.39581,60.17426-94.04437,98.52887-135.01721c2.26917-2.42407,5.12994-5.19354,8.15027-5.87531 C268.38074,178.13617,296.90027,172.06799,325.94733,169.02081z M135.42474,307.27832 c-2.89056,5.0376-5.51868,10.23669-8.62073,15.138c-1.99182,3.14697-1.90009,9.43054-8.70392,6.5083 c-5.65533-2.42902-6.49927-6.58807-4.8941-11.90466c3.3631-11.13959,6.50543-22.35034,10.10858-33.41132 c2.55237-7.83539,6.51019-15.27637,8.46863-23.23126c11.35632-46.12769,43.73743-65.38641,90.02625-69.33545 C187.67572,226.95642,159.3811,265.52753,135.42474,307.27832z M113.91223,334.00763 c2.89594,1.23608,6.18219,2.4068,3.48303,7.13745c-3.87952,6.79932-5.84161,14.69702-11.75238,21.20715 c-3.37299-9.1214,1.89575-16.50476,2.33325-24.37646C108.14795,334.88416,110.34613,332.48553,113.91223,334.00763z M95.53217,471.01312c-0.04724-5.87231-0.71936-11.50391,6.59595-14.31842c52.53735-20.21381,107.23846-31.90063,162.71155-41.60486 c6.78314-0.81781,8.07208,2.32391,6.32776,8.64697c-13.99652,50.73651-21.99792,102.57404-27.14557,154.83722 c-2.28937,23.24402-3.00244,46.66174-3.82111,70.02197c-0.27863,7.95184-1.74597,11.60651-10.86383,9.65613 c-33.56909-7.18054-66.89087-15.19519-99.62866-25.61908c-7.0813-2.25464-11.57977-5.55286-13.47205-13.19678 C104.16321,570.66742,95.93726,521.39838,95.53217,471.01312z M231.22235,664.9054 c11.435,1.81598,8.95502,10.87988,8.55188,18.11426c-0.37726,6.76935,3.96411,14.91956-8.54462,17.92139 c-23.06531,5.5351-45.6344,13.22974-68.22015,20.60669c-5.44495,1.77838-9.1377,2.64886-11.77429-3.44409 c-11.11035-25.67578-21.45502-51.61353-29.18738-80.52991C159.15656,648.76526,194.64484,659.09656,231.22235,664.9054z M184.47443,720.10553c13.86914-4.36078,28.03369-7.78387,41.89301-12.17303c9.65186-3.05676,14.04449-2.58679,14.80377,9.935 c3.12085,51.4679,10.57684,102.3493,25.38586,151.92352c3.01184,10.08221,6.28613,20.08612,9.43951,30.1261 c-44.72235-42.34937-78.9978-91.01385-106.5946-144.39435C155.85876,729.32599,156.13214,729.01697,184.47443,720.10553z M341.84143,698.77686c-2.07416-8.03546-1.18207-11.12805,8.2417-13.00269c19.75775-3.93036,39.02246,0.66821,58.11078,2.40167 c26.21497,2.38074,52.53015,0.86627,78.68604,4.16199c9.19794,1.15887,11.07324,3.97272,10.97174,12.3161 c-0.39142,32.15924,2.52167,159.80878,2.97064,191.46222c0.11761,8.29517-1.20697,12.0473-10.75848,12.44867 c-18.44452,0.77539-36.85864,2.92065-55.20276,5.17114c-9.50818,1.16638-14.76666-1.75769-19.23499-10.66449 C382.91534,837.8681,360.02026,769.20221,341.84143,698.77686z M494.14777,914.71887 c4.08337-0.25024,6.60815,0.86029,6.89471,5.30396c0.31891,4.9458-2.96149,5.58527-6.62933,5.42108 c-21.29022-0.95258-42.5766-1.98999-63.86432-2.99866C451.5769,916.34735,472.9068,916.02032,494.14777,914.71887z M494.73041,931.29407c5.10645,0.00739,8.17847,2.26093,8.54883,7.73462c1.93506,28.60455,3.95947,57.20306,5.86743,85.8092 c0.04523,0.67847-0.9101,1.42358-2.49512,3.73975c-31.64233-28.09821-55.41357-61.52643-74.64429-97.29596 C453.25836,931.28168,473.99445,931.26416,494.73041,931.29407z M514.14868,913.74835 c11.56268-0.24524,23.12952-0.32111,34.69513-0.37915c3.37164-0.01691,5.48108,1.58856,5.30493,5.23877 c-0.16986,3.52045-0.73071,6.98401-5.29779,7.10406c-5.77917,0.15198-11.56537,0.03668-17.34863,0.03668 c-0.00006-0.04651-0.00018-0.0929-0.00024-0.1394c-5.3031,0-10.60645,0.03436-15.90912-0.01215 c-3.49969-0.03076-6.88043-0.2605-7.02692-5.07715C508.44568,916.55969,509.94562,913.83759,514.14868,913.74835z M558.34985,940.95593c0.51721-6.32996,3.13837-8.34662,8.98566-8.57831c36.85571-1.46033,73.70471-3.0899,114.54883-4.83405 c-36.9812,49.99396-76.32428,91.50879-129.03973,118.57458c-2.41211,1.23853-5.2583,3.94104-7.66547,1.17578 c-1.15369-1.3252-0.56311-4.57056-0.12335-6.82153C551.48438,1007.56488,555.62207,974.34399,558.34985,940.95593z M561.27362,919.99377c0.28046-6.47821,4.75482-6.45551,9.26196-6.11597c18.88739,1.42352,37.76465,2.98236,56.64819,4.45813 c5.74237,0.44867,11.49323,0.78992,17.24011,1.18042c-24.91223,6.7937-50.13647,5.93134-75.29388,6.13544 C565.28925,925.68298,561.01038,926.0741,561.27362,919.99377z M676.84705,918.47949 c-33.54272-6.29742-67.57318-9.21368-101.63086-10.14343c-12.60712-0.34424-13.21381-4.24054-12.35773-15.25494 c4.07782-52.4646,6.96637-105.02209,10.21667-157.55011c0.33105-5.34998,0.12933-10.73114,0.38348-16.08795 c1.2085-25.47052,1.30627-24.66327,25.95966-26.86774c36.83923-3.29407,73.84454-3.24933,110.70868-7.05408 c17.88812-1.84631,36.57068,3.79474,54.86713,6.24359c5.64062,0.75488,6.2052,4.79431,5.95129,9.77484 c-0.42139,8.26605-0.11469,16.56921-0.11469,24.85675c2.59137,22.67438-4.44849,43.08899-13.37665,63.49689 c-18.36853,41.98669-38.87286,82.75372-64.02386,121.13977C689.19489,917.49713,685.23029,920.05341,676.84705,918.47949z M762.65405,796.60162c3.03583,16.69427-2.57941,32.64215-5.11658,48.60632c-2.94446,18.52625-9.37811,36.47321-12.98865,54.92786 c-2.026,10.35541-6.86084,14.97308-17.08923,15.52783c-9.67487,0.52478-19.30505,1.87567-31.62732,3.13672 C721.9566,878.49677,743.01288,838.13971,762.65405,796.60162z M750.41467,942.21173 c7.69824,3.69983,20.51416,4.14587,21.90479,11.33002c1.19727,6.18579-11.20831,10.39484-17.87878,14.95776 c-11.39972,7.79797-23.40747,14.70679-35.15997,21.98907c-0.55457-0.79608-1.10913-1.59216-1.6637-2.38824 c5.91431-13.25507,12.40674-26.29138,17.53461-39.84418C738.42694,939.59912,742.85767,938.57971,750.41467,942.21173z M752.52661,936.62555c-3.80823-1.81378-10.63635-0.99426-9.41077-8.56232c1.10828-6.84314,5.33435-8.86462,12.01831-9.89697 c24.86847-3.84119,49.60657-8.52637,74.39368-12.89478c0.55267,0.70715,1.10541,1.41431,1.65808,2.12134 c-15.10516,12.83685-30.26031,25.6156-45.27954,38.55212c-3.68378,3.17285-6.83728,1.96216-10.60767,0.25189 C767.80231,942.79639,759.95178,940.16235,752.52661,936.62555z M748.47345,912.16888 c14.21466-50.14221,21.75897-99.18024,27.61145-148.71851c2.3949-20.27118,12.8645-39.54156,19.17383-59.42175 c2.23724-7.04895,7.21887-5.70374,11.69867-4.81287c46.30554,9.20776,91.74481,21.2345,134.71338,41.41827 c7.73065,3.63129,8.31897,7.49768,4.40643,14.65637c-26.94818,49.30737-59.76874,94.27319-98.54651,134.90826 c-2.64935,2.77637-5.20135,5.33948-9.44141,6.29028C809.2486,902.95721,780.36444,909.06104,748.47345,912.16888z M926.16302,801.59692c8.96307-14.42712,17.3761-29.19543,26.09607-43.77466c2.09381-3.50055,3.12195-8.91144,9.41669-5.69891 c4.75775,2.42816,5.75256,6.40198,4.49939,11.06732c-9.6192,35.81219-22.67834,70.26807-40.67328,102.77405 c-1.76233,3.18353-4.3576,5.2735-7.59369,6.47064c-18.56128,6.86615-37.15997,13.63385-57.52063,16.56915 C883.83771,860.68402,906.9176,832.57495,926.16302,801.59692z M965.28809,746.89661 c-3.26154-1.38794-5.78961-3.14917-3.40875-7.60101c3.75049-7.0127,6.99872-14.29425,12.0672-24.79199 c2.26019,12.55286-1.86481,20.13843-2.77783,28.15271C970.87854,745.20447,969.25098,748.58301,965.28809,746.89661z M956.72351,734.40234c-2.5661,5.28302-6.05048,4.30884-10.63519,2.05304c-43.0686-21.19055-88.97522-33.42188-135.81561-42.71362 c-4.20068-0.83319-10.67157-0.37561-9.14496-8.16931c1.0033-5.12195,0.59302-11.48346,7.63281-12.50153 c59.42664-8.59436,117.50409-22.65942,173.99255-43.51923C988.70038,668.83569,972.65149,701.61017,956.72351,734.40234z M965.10547,628.85608c-46.77771,16.10529-94.86682,26.6825-143.34747,35.71484 c-15.53485,2.89423-15.77747,2.11444-11.92401-13.19501c17.8924-71.08374,26.84717-143.40039,29.18848-216.55756 c0.3233-10.10315,1.15973-14.0484,13.3623-11.52374c33.17572,6.86395,65.90082,15.05951,98.17188,25.35297 c6.98816,2.22906,10.55322,5.88458,12.2807,12.52698c11.922,45.84576,18.61206,92.47272,21.29138,142.77112 C988.69836,617.7077,979.40088,623.93427,965.10547,628.85608z M1024.26636,483.69312 c28.97314,10.6225,48.12878,36.34247,47.6156,61.91583c-0.2677,13.34363-7.76733,22.5412-16.19824,31.43494 c-12.77429,13.47552-28.08789,23.21027-46.36285,32.10162C1017.73322,566.61176,1025.62219,525.86365,1024.26636,483.69312z M1003.10803,297.49567c37.52368,64.87335,59.91589,133.36334,64.97852,207.61493 c-12.75024-10.8537-25.05688-21.02722-38.91614-29.01324c-5.53271-3.18805-5.04712-7.69678-4.96704-12.48828 c0.85229-50.98962-8.71301-100.32361-23.52631-148.83667C998.47382,307.55646,998.58167,307.5235,1003.10803,297.49567z M1016.1925,432.08228c0.54858,8.73975,1.19519,17.47345,1.67078,24.37946c2.29736,11.58368-1.33154,13.33234-9.40918,8.50702 c-0.41779-0.24951-0.82745-0.56653-1.28461-0.68866c-31.96411-8.5401-51.63379-27.61505-57.02484-61.60809 c-2.07611-13.09076-8.99707-25.61365-14.88397-37.82965c-3.99597-8.29193-3.57172-12.50397,5.65552-16.34753 c16.16852-6.73511,31.13708-15.93933,44.13507-27.81024c6.40277-5.84753,8.57648-5.37018,11.16919,3.30487 C1006.78497,359.33783,1013.88055,395.24554,1016.1925,432.08228z M996.08221,273.69836 c-6.56812-9.53223-13.13611-19.06445-19.7041-28.59668C988.48291,250.82971,994.96063,260.45917,996.08221,273.69836z M944.55603,192.93048c8.44336,10.58923,16.88666,21.17853,25.33002,31.76776c-16.52014-4.19025-18.16132-20.16681-29.49414-28.4668 C941.77997,195.1311,943.16797,194.03076,944.55603,192.93048z M960.85992,238.98932 c9.52338,19.08826,18.71356,38.26343,26.46112,58.18048c2.77472,7.13293,1.98718,11.66638-3.35681,16.65381 c-14.43152,13.46857-31.46051,22.69769-49.01581,31.22241c-8.63654,4.19385-9.81744-2.93323-12.18579-7.76324 c-19.99078-40.76898-43.76611-79.18134-71.71143-114.95862c-10.42908-13.35205-21.5094-26.19525-34.58643-42.05157 c44.68542,9.55286,84.72192,20.62646,122.78119,38.27051C948.95911,223.04602,956.02771,229.30341,960.85992,238.98932z M926.41174,195.94562c3.59735,3.72876,6.9256,7.71735,10.37854,11.58557c-36.27374-12.49988-72.18561-24.21271-109.21582-30.80878 c-22.2218-3.95831-33.80737-16.20996-41.84802-35.30695c-2.64294-6.27722-2.20551-9.72852,3.78186-12.92255 c3.82574-2.04089,8.57648-4.23492,10.4718-7.69678c11.10284-20.2796,22.55121-9.49042,34.6723-1.37689 C867.94904,141.70715,898.59833,167.11621,926.41174,195.94562z M814.13708,85.38452 c25.17633,9.45642,84.25592,60.47748,99.29718,86.14203c-4.82825-0.08527-6.82043-3.57825-9.32172-5.81183 c-25.05292-22.3717-51.51892-42.90594-80.35815-60.13843C815.39978,100.58405,812.1261,94.65588,814.13708,85.38452z M807.22137,92.79596c-30.88855-18.70001-68.8692-23.9826-95.09583-51.27496 C747.33337,52.22528,785.9491,56.52625,807.22137,92.79596z M704.40356,47.77258 c-24.07526-5.50494-47.50513-12.33661-71.1922-18.23102C657.91217,32.07281,684.1333,28.27924,704.40356,47.77258z M721.63068,63.1554c19.05933,8.64862,28.78589,29.83362,40.10046,47.41644c3.98547,6.1933,13.41229,15.54999,8.84644,19.34393 c-7.70245,6.40039-13.84607-5.20361-19.78674-9.8382c-45.30554-35.34454-94.32477-63.78363-148.88831-82.29852 c-3.56885-1.211-7.02515-2.75366-10.53381-4.14203C636.67688,36.47473,680.79633,44.62585,721.63068,63.1554z M760.54657,136.10236 c-33.31018,10.27972-63.01306,23.19531-96.59705,16.85321c-5.565-1.0509-8.76318-3.69073-11.17737-8.00452 c-22.23877-39.73633-48.43665-76.28192-84.12354-105.27997c-0.84802-0.68903-0.67865-2.63031-1.40863-5.87665 C639.6886,52.35132,701.81958,87.41656,760.54657,136.10236z M544.90247,32.67847 c7.57788,1.21307,16.39795,6.12354,17.34918,16.91791c1.7865,20.27271,3.92706,40.51398,5.83301,60.77649 c0.49988,5.31494,0.46027,10.68402,1.04321,15.98706c2.5199,22.92688,2.57043,22.92133-19.69366,22.57507 c-24.09497-0.37469-24.10498-0.37604-20.9762-24.33649c3.38715-25.93896,6.36493-51.9455,10.57867-77.74982 C539.82568,42.01648,538.44025,31.64404,544.90247,32.67847z M520.99139,139.6286 c-0.57477,8.98975-6.04547,9.67999-12.98779,9.52136c-36.05658-0.82391-71.9397,2.43384-110.94873,5.03827 c37.19867-52.34271,79.49841-95.43341,138.81854-124.43152C528.77985,68.35278,523.28253,103.79443,520.99139,139.6286z M509.78967,34.87933c-15.09497,11.41614-29.26025,21.42981-42.64319,32.39819 c-26.57727,21.78223-49.46094,47.21954-69.11285,75.28198c-6.95868,9.93677-14.01404,11.15302-24.5871,8.46027 c-27.97992-7.12604-27.3985-6.57867-16.61816-33.41986c10.51233-26.17407,27.29559-43.82111,54.62543-53.65051 c30.01672-10.79578,59.98846-21.4043,90.85223-29.4314C504.06519,34.06049,506.10065,34.66553,509.78967,34.87933z M425.06995,36.92389c16.77692-1.64673,33.21497-6.62421,50.33136-4.52386c-25.57312,10.49854-52.34473,16.80054-76.03949,30.92871 c-1.6532,0.98578-5.34607,0.78394-6.67407-0.42358c-2.18457-1.98651,0.17181-4.38416,1.67944-6.10394 C402.70074,47.29468,410.99384,38.30554,425.06995,36.92389z M397.21198,35.52728 c-37.51923,10.70728-74.1272,23.97455-110.02679,39.01477C319.90344,49.86816,357.81305,40.53143,397.21198,35.52728z M284.18945,84.87036c34.02826-16.54138,68.96753-30.38019,106.60846-38.21405 c-8.76569,14.80316-16.84546,29.07025-33.28955,37.14728c-18.62854,9.15002-35.83783,21.13971-52.51508,33.69 c-9.44788,7.10986-19.93115,2.74695-28.71857-11.25964C269.52954,95.48248,273.99884,89.8241,284.18945,84.87036z M265.23529,96.07062c3.27264,11.02289,9.45093,20.15448,18.88196,26.71747c4.60785,3.20667,5.65814,5.40509,0.67969,9.68866 c-17.29633,14.88214-34.06177,30.38031-51.30151,45.32996c-6.86041,5.9491-16.29523,5.66138-24.49182,8.37665 c-14.52808,4.8125-29.27429,8.96637-47.39087,14.44214C189.79303,156.29816,217.63678,117.02887,265.23529,96.07062z M185.0528,152.82031c-19.78906,23.61206-26.53821,59.96228-67.3371,66.39423 C138.75201,193.0929,160.25854,171.31293,185.0528,152.82031z M100.45422,242.67682 c11.99109-11.28552,26.27307-19.58704,45.25256-26.65332c-16.55042,32.8573-28.74323,63.48718-37.27747,95.43561 c-2.43481,9.11481-5.58258,6.84717-10.66528,2.54889C73.61914,293.58905,74.18469,267.4007,100.45422,242.67682z M72.28571,285.15186c6.5155,17.39984,16.1405,29.67719,28.76868,39.62585c4.25995,3.35602,1.71893,8.3891,1.01599,12.42596 c-6.80054,39.05206-13.43604,78.16388-27.0686,115.61432c-1.93097,5.30475-3.72919,10.13531-9.8421,13.24402 C44.41937,476.60956,24.8078,488.9892,7.55341,510.9563C12.31989,429.09119,32.51971,356.1106,72.28571,285.15186z M8.2771,531.28864c5.88245-32.32159,34.72455-43.74384,60.8512-60.20325c-3.91931,23.21021-8.06018,43.4519-10.58423,63.89331 c-2.48401,20.11688-3.32831,40.43628-5.11676,63.57318C26.97675,581.50214,2.09515,565.25574,8.2771,531.28864z M77.09747,779.06995 c-4.77252,2.16241-5.29156-3.23395-6.67108-5.74762C36.32031,711.17487,15.18701,645.06213,9.01654,570.10724 c12.88104,14.97205,24.72968,24.90417,38.22339,32.68695c5.48029,3.16083,6.7594,7.86511,6.85669,13.44751 c0.9079,52.08417,9.33173,102.94141,24.91992,152.62604C80.21576,772.69006,81.53894,777.05774,77.09747,779.06995z M83.37512,757.42096c-10.45135-34.81012-18.1665-70.08282-19.74115-106.42053c-0.54602-12.59906-5.30933-24.91711-2.21417-38.61469 c16.23676,6.80096,31.28284,13.27313,46.47827,19.37292c5.10413,2.04895,7.52942,5.70105,8.95721,10.60938 c7.46741,25.6709,16.64758,50.74866,27.66089,75.07922c3.43494,7.58862,2.19128,11.13953-5.22986,14.34222 c-16.58954,7.15936-32.12598,16.21027-45.62341,28.39551C88.58142,764.77246,86.06921,766.39417,83.37512,757.42096z M121.14594,846.37976c-11.95471-20.45959-20.82654-42.33801-29.65887-64.26196c-2.43677-6.04871-1.22614-10.14941,3.00909-14.3222 c14.45032-14.23712,31.99207-23.58624,50.1087-32.10413c8.97839-4.22131,9.69843,3.69171,11.97491,8.2854 c21.4613,43.30493,46.96033,84.02838,77.23914,121.71454c8.46234,10.53247,17.25635,20.79852,28.80438,34.68011 c-48.11841-10.18042-90.88123-22.08429-131.03271-42.32996C126.3205,855.38434,123.79486,850.91327,121.14594,846.37976z M143.96875,872.96906c28.98706,9.64899,57.63696,19.78796,87.32648,26.53809c6.61688,1.50439,13.14197,3.96039,19.82953,4.50671 c23.12329,1.88885,34.84637,16.37744,42.6745,36.24255c1.96826,4.99481,2.46832,9.52936-2.57715,10.72034 c-13.0213,3.0733-17.159,27.07526-31.2453,19.18018C215.66315,945.31982,177.35962,912.24817,143.96875,872.96906z M264.78076,996.79797c-40.28992-23.80109-73.29266-54.25751-103.05054-90.28857c5.19196-0.97546,6.84827,2.52747,8.94727,4.45917 c26.1557,24.07178,54.13251,45.77393,84.57581,64.11975C263.46942,980.03961,266.49078,986.16626,264.78076,996.79797z M271.14307,983.6698c31.4516,23.29572,69.23248,27.92957,96.82501,53.86377 C338.62042,1040.66284,277.32764,1008.36536,271.14307,983.6698z M370.49579,1030.84363 c25.84778,6.75134,48.48871,12.66492,71.1297,18.57849C417.74304,1048.39453,392.72998,1051.78662,370.49579,1030.84363z M379.28094,1026.5437c-38.33282-10.15204-51.95984-42.81146-70.79218-71.22632c-1.11243-1.67853-1.86389-3.59961-0.38513-5.31824 c1.89117-2.19788,4.29303-1.90265,6.57513-0.53668c1.24805,0.74719,2.42731,1.63623,3.54321,2.57355 c49.65723,41.71313,105.08197,73.26709,166.35309,95.35071C448.41235,1045.38708,413.99255,1035.73633,379.28094,1026.5437z M469.36804,1033.75647c-51.70819-18.83942-98.2381-46.70795-141.11548-81.06372c-8.53766-6.84082-7.14374-9.88672,2.20337-12.44824 c27.05579-7.41418,53.63086-17.75616,82.66943-12.77191c4.40808,0.75665,8.66479,0.56213,11.1709,5.14917 c22.58612,41.34094,50.90259,78.16559,86.26599,109.44476c0.53705,0.47498,0.33093,1.79041,0.60486,3.58838 C496.21515,1044.57507,482.87024,1038.6759,469.36804,1033.75647z M533.89697,1047.64502 c-6.6947-0.78418-14.8042-4.90527-16.11542-12.54504c-5.43604-31.67297-6.64111-63.8125-9.0694-95.81085 c-0.4538-5.98022,2.99854-7.43219,8.19885-7.20447c4.85693,0.21277,9.73059,0.04559,14.59686,0.04559 c21.21857,1.19147,21.2298,1.1925,19.26202,23.36523c-2.4054,27.10461-5.63733,54.1059-11.37091,80.72668 C538.49994,1040.39648,540.67542,1048.43921,533.89697,1047.64502z M544.62256,1074.54077 c-2.61316,0.03662-7.52008,2.23132-7.09094-3.85754c0.35101-4.98059,3.36395-6.55603,7.98352-5.69275 c5.14099,0.96069,10.10162,2.35962,15.73834,6.75818C555.06335,1075.63916,549.68182,1074.46973,544.62256,1074.54077z M685.66388,932.61615c4.32928-5.98999,9.00165-8.26788,15.66821-3.71875c1.14514,0.78143,2.75098,0.92737,4.16852,1.26337 c28.13489,6.67218,27.55695,6.43188,16.81757,32.61548c-10.19067,24.8457-25.117,43.21088-51.64465,52.82794 c-32.17999,11.66595-63.76135,24.70758-98.11127,28.83453C618.01361,1014.28735,654.3269,975.97412,685.66388,932.61615z M595.52521,1050.62769c31.21448-10.62683,62.26941-21.65356,92.74634-34.31592 C666.84332,1054.80737,628.12561,1043.95166,595.52521,1050.62769z M685.86682,1044.29382 c35.04633-10.68396,69.53595-22.95587,103.51666-36.67957C758.67719,1030.67847,723.05719,1039.72607,685.86682,1044.29382z M796.07013,995.35126c-35.30701,17.25537-71.6131,31.55548-111.19946,41.13898 c12.94049-21.83521,28.8064-37.07141,49.94159-47.63031c14.17731-7.08258,26.73438-17.4184,39.9823-26.34937 c9.07721-6.11932,20.34558-1.11847,28.25415,12.31433C808.77948,984.55872,806.25281,990.37451,796.07013,995.35126z M845.82825,966.10449c-4.43793,2.98688-9.18848,5.54181-13.44507,8.75873c-10.80377,8.16492-19.62366,11.90497-26.49628-5.08514 c-2.65601-6.56622-10.53052-11.02124-15.64319-16.05951c33.70813-37.50592,72.18158-66.13226,123.26947-70.62054 C907.55878,902.19598,868.16754,951.06873,845.82825,966.10449z M893.24951,928.00824 c20.48395-23.54431,27.63837-60.11621,64.99402-66.17914C953.4754,874.49493,916.11609,913.88354,893.24951,928.00824z M991.81683,820.71118c-12.79523,21.85046-33.19543,32.78107-55.51282,41.90778 c13.95935-31.29529,26.21783-62.43414,34.84778-94.89899c1.59204-5.98889,3.61584-5.52539,7.87628-2.81598 C998.85712,777.51447,1003.60468,800.58136,991.81683,820.71118z M980.83893,758.48517 c-4.45178-3.53168-5.03674-6.8775-4.164-12.42487c6.3941-40.63824,14.54327-80.83582,27.85236-119.84509 c1.51514-4.4408,3.06775-8.57355,8.21832-11.0274c21.56519-10.27429,40.99927-23.66071,59.36877-45.54071 c-5.78064,82.46002-25.65649,155.93976-65.85413,227.06671C1001.18414,778.93414,992.35834,767.62347,980.83893,758.48517z" fill="#ffffff"/></g></svg>