<?xml version="1.0" encoding="UTF-8" standalone="no"?><svg xmlns="http://www.w3.org/2000/svg" xmlns:xlink="http://www.w3.org/1999/xlink" fill="#000000" height="114.1" preserveAspectRatio="xMidYMid meet" version="1" viewBox="-0.2 -0.2 169.8 114.1" width="169.8" zoomAndPan="magnify"><g fill="#cbcbcb" id="change1_1"><path d="M167.6,113.9H1.6c-0.9,0-1.6-0.7-1.6-1.6V1.6C0,0.7,0.7,0,1.6,0h166c0.9,0,1.6,0.7,1.6,1.6v110.7 C169.3,113.2,168.5,113.9,167.6,113.9z M3.2,110.7H166V3.2H3.2V110.7z"/><path d="M84.6,71.8c-0.4,0-0.7-0.1-1-0.4L0.6,2.9c-0.7-0.6-0.8-1.6-0.2-2.3C0.9-0.1,2-0.2,2.7,0.4l82,67.7l82-67.7 c0.7-0.6,1.7-0.5,2.3,0.2c0.6,0.7,0.5,1.7-0.2,2.3l-83,68.6C85.4,71.7,85,71.8,84.6,71.8z"/><path d="M1.6,113.9c-0.4,0-0.8-0.2-1.1-0.5c-0.6-0.6-0.6-1.7,0-2.3l60.8-60.8c0.6-0.6,1.7-0.6,2.3,0 c0.6,0.6,0.6,1.7,0,2.3L2.8,113.4C2.5,113.7,2,113.9,1.6,113.9z"/><path d="M167.6,113.9c-0.4,0-0.8-0.2-1.1-0.5l-60.6-60.6c-0.6-0.6-0.6-1.7,0-2.3c0.6-0.6,1.7-0.6,2.3,0l60.6,60.6 c0.6,0.6,0.6,1.7,0,2.3C168.5,113.7,168,113.9,167.6,113.9z"/></g></svg>