<?xml version="1.0" encoding="UTF-8" standalone="no"?><svg xmlns="http://www.w3.org/2000/svg" xmlns:xlink="http://www.w3.org/1999/xlink" fill="#e6d1ff" height="126.1" preserveAspectRatio="xMidYMid meet" version="1" viewBox="0.0 0.0 126.0 126.1" width="126" zoomAndPan="magnify"><g id="change1_1"><path d="M55.556,63.645h-38.37c-2.715,0-4.923,2.208-4.923,4.923V81.94c0,2.715,2.208,4.923,4.923,4.923h6.529v7.068 c0,0.553,0.447,1,1,1h4.662h4.663h4.662h4.662h4.662c0.553,0,1-0.447,1-1v-7.068h6.529c2.715,0,4.923-2.208,4.923-4.923V68.567 C60.479,65.853,58.271,63.645,55.556,63.645z M25.715,84.595h2.662v8.337h-2.662V84.595z M30.377,84.595h2.663v8.337h-2.663V84.595 z M35.04,84.595h2.662v8.337H35.04V84.595z M39.702,84.595h2.662v8.337h-2.662V84.595z M47.026,92.932h-2.662v-8.337h2.662V92.932z M58.479,81.94c0,1.611-1.312,2.923-2.923,2.923h-6.529v-1.269c0-0.553-0.447-1-1-1h-4.662h-4.662H34.04h-4.663h-4.662 c-0.553,0-1,0.447-1,1v1.269h-6.529c-1.611,0-2.923-1.312-2.923-2.923V68.567c0-1.611,1.312-2.923,2.923-2.923h38.37 c1.611,0,2.923,1.312,2.923,2.923V81.94z" fill="inherit"/><path d="M26.831,71.369c-2.142,0-3.885,1.743-3.885,3.885s1.743,3.884,3.885,3.884s3.885-1.742,3.885-3.884 S28.973,71.369,26.831,71.369z M26.831,77.138c-1.039,0-1.885-0.845-1.885-1.884s0.846-1.885,1.885-1.885s1.885,0.846,1.885,1.885 S27.87,77.138,26.831,77.138z" fill="inherit"/><path d="M45.91,71.369c-2.142,0-3.884,1.743-3.884,3.885s1.742,3.884,3.884,3.884s3.885-1.742,3.885-3.884 S48.052,71.369,45.91,71.369z M45.91,77.138c-1.039,0-1.884-0.845-1.884-1.884s0.845-1.885,1.884-1.885s1.885,0.846,1.885,1.885 S46.949,77.138,45.91,77.138z" fill="inherit"/><path d="M118.393,0H65.607C61.413,0,58,3.413,58,7.607V37c-5.21-4.472-12.401-6.686-21.629-6.686 c-21.353,0-31.825,11.827-32,36.151c-0.27,0.146-0.523,0.316-0.773,0.489c-0.002,0.001-0.004,0.001-0.006,0.002 c-0.003,0.002-0.005,0.005-0.008,0.007C1.372,68.505,0,71.044,0,73.804v7.844c0,2.38,1.008,4.526,2.612,6.047 c0.009,0.01,0.013,0.023,0.022,0.032c0.013,0.012,0.03,0.016,0.044,0.028c1.489,1.382,3.476,2.235,5.663,2.235h0.399v6.219 c0,2.451,1.856,4.454,4.233,4.735l1.92,2.73c0.188,0.267,0.493,0.425,0.818,0.425h14.996v2.032h-5.993 c-0.013,0-0.023,0.008-0.036,0.008c-0.113,0.004-0.223,0.034-0.333,0.078c-0.027,0.011-0.056,0.011-0.082,0.024 c-0.004,0.002-0.009,0.002-0.013,0.004c-0.129,0.067-0.233,0.16-0.318,0.267c-0.003,0.004-0.009,0.006-0.012,0.01l-13.719,17.869 c-0.337,0.438-0.254,1.066,0.184,1.402c0.44,0.339,1.068,0.253,1.402-0.184l12.765-16.626l8.6,16.463 c0.179,0.342,0.527,0.537,0.888,0.537c0.156,0,0.314-0.036,0.462-0.113c0.489-0.256,0.679-0.86,0.424-1.35l-8.561-16.39h20.01 l-8.56,16.39c-0.255,0.489-0.065,1.094,0.424,1.35c0.147,0.077,0.306,0.113,0.462,0.113c0.36,0,0.709-0.195,0.888-0.537 l8.599-16.463l12.765,16.626c0.196,0.256,0.493,0.391,0.794,0.391c0.212,0,0.427-0.067,0.608-0.207 c0.438-0.336,0.521-0.964,0.184-1.402l-13.719-17.869c-0.003-0.004-0.009-0.006-0.012-0.01c-0.085-0.107-0.189-0.2-0.318-0.267 c-0.004-0.002-0.009-0.002-0.013-0.004c-0.026-0.013-0.055-0.013-0.082-0.024c-0.109-0.044-0.22-0.074-0.333-0.078 c-0.012,0-0.023-0.008-0.036-0.008h-5.993v-2.032H57.03c0.325,0,0.631-0.158,0.818-0.425l1.919-2.73 C62.144,100.662,64,98.659,64,96.208v-6.219h0.4c2.188,0,4.175-0.853,5.664-2.236c0.013-0.011,0.029-0.015,0.042-0.027 c0.009-0.009,0.013-0.022,0.022-0.031c1.605-1.521,2.613-3.667,2.613-6.048v-7.844c0-2.753-1.367-5.287-3.573-6.83 c-0.008-0.005-0.012-0.013-0.021-0.018c-0.005-0.003-0.01-0.002-0.015-0.005c-0.247-0.171-0.496-0.339-0.763-0.484 c-0.044-6.089-0.733-11.394-2.076-15.928h5.709v9.956c0,0.398,0.236,0.759,0.602,0.917c0.128,0.056,0.264,0.083,0.398,0.083 c0.248,0,0.493-0.093,0.683-0.269l11.45-10.688h33.258c4.194,0,7.607-3.413,7.607-7.608V7.607C126,3.413,122.587,0,118.393,0z M2,73.804c0-1.643,0.646-3.18,1.73-4.336c0.729,1.9,1.156,4.556,1.156,7.42c0,3.91-0.777,6.885-1.656,8.497 C2.46,84.335,2,83.046,2,81.647V73.804z M44.528,54.885l-2.322-3.202c-0.188-0.26-0.489-0.413-0.81-0.413h-10.05 c-0.32,0-0.621,0.153-0.81,0.413l-2.322,3.202h-14.68c-0.851,0-1.64,0.242-2.334,0.633c1.293-6.764,6.242-19.342,25.172-19.342 c18.888,0,23.856,12.571,25.162,19.337c-0.692-0.388-1.477-0.628-2.325-0.628H44.528z M42.057,54.885H30.684l1.171-1.615h9.03 L42.057,54.885z M40.033,106.131h-7.325v-2.032h7.325V106.131z M56.511,102.099H16.231L15.459,101h41.824L56.511,102.099z M62,96.208C62,97.747,60.747,99,59.208,99H13.533c-1.539,0-2.792-1.253-2.792-2.792V59.677c0-1.539,1.253-2.792,2.792-2.792 h45.675c1.539,0,2.792,1.253,2.792,2.792c0,0,0,0.001,0,0.001V96.208z M70.741,73.804v7.844c0,1.398-0.46,2.688-1.23,3.737 c-0.879-1.612-1.656-4.587-1.656-8.497c0-2.861,0.426-5.515,1.155-7.417C70.095,70.626,70.741,72.162,70.741,73.804z M66.966,68.005c0.136,0.061,0.26,0.14,0.391,0.209c-0.949,2.182-1.501,5.332-1.501,8.674c0,4.12,0.836,7.85,2.178,9.949 c-1.03,0.724-2.282,1.153-3.634,1.153H64V59.677c0-0.255-0.316-25.501-27.629-25.501c-27.313,0-27.63,25.246-27.63,25.501v28.313 H8.342c-1.352,0-2.604-0.429-3.634-1.153c1.343-2.099,2.178-5.829,2.178-9.949c0-3.344-0.553-6.496-1.502-8.677 c0.131-0.069,0.254-0.148,0.391-0.209c0.361-0.16,0.595-0.519,0.595-0.914c0-23.725,9.533-34.774,30.002-34.774 c14.585,0,23.612,5.617,27.599,17.427c0.012,0.051,0.031,0.096,0.051,0.143c1.575,4.736,2.35,10.457,2.35,17.207 C66.371,67.486,66.604,67.845,66.966,68.005z M124,42.932c0,3.093-2.516,5.608-5.607,5.608H84.74c-0.253,0-0.497,0.096-0.683,0.269 l-10.056,9.386V49.54c0-0.553-0.447-1-1-1h-7.369c-1.363-3.801-3.239-6.999-5.633-9.602V7.607C60,4.516,62.516,2,65.607,2h52.785 C121.484,2,124,4.516,124,7.607V42.932z" fill="inherit"/><path d="M119.419,62H81.581C77.952,62,75,64.952,75,68.581v12.841c0,3.629,2.952,6.582,6.581,6.582h28.634l6.954,6.953 c0.191,0.191,0.447,0.293,0.707,0.293c0.129,0,0.259-0.024,0.383-0.076c0.374-0.154,0.617-0.52,0.617-0.924v-6.246h0.543 c3.629,0,6.581-2.953,6.581-6.582V68.581C126,64.952,123.048,62,119.419,62z M124,81.422c0,2.526-2.055,4.582-4.581,4.582h-1.543 c-0.553,0-1,0.447-1,1v4.832l-5.54-5.539c-0.188-0.188-0.441-0.293-0.707-0.293H81.581c-2.526,0-4.581-2.056-4.581-4.582V68.581 C77,66.055,79.055,64,81.581,64h37.838c2.526,0,4.581,2.055,4.581,4.581V81.422z" fill="inherit"/><path d="M106.541,90.351H72.133c-3.315,0-6.013,2.697-6.013,6.012v12.599c0,3.315,2.697,6.013,6.013,6.013h1.303V125 c0,0.424,0.267,0.801,0.666,0.942c0.109,0.039,0.223,0.058,0.334,0.058c0.296,0,0.584-0.132,0.777-0.371l8.627-10.655h22.701 c3.315,0,6.013-2.697,6.013-6.013V96.362C112.554,93.048,109.856,90.351,106.541,90.351z M110.554,108.961 c0,2.213-1.8,4.013-4.013,4.013H83.363c-0.302,0-0.587,0.137-0.777,0.371l-7.15,8.831v-8.202c0-0.553-0.447-1-1-1h-2.303 c-2.213,0-4.013-1.8-4.013-4.013V96.362c0-2.212,1.8-4.012,4.013-4.012h34.408c2.213,0,4.013,1.8,4.013,4.012V108.961z" fill="inherit"/></g></svg>