<?xml version="1.0" encoding="UTF-8" standalone="no"?><svg xmlns="http://www.w3.org/2000/svg" xmlns:xlink="http://www.w3.org/1999/xlink" clip-rule="evenodd" fill="#e6d1ff" fill-rule="evenodd" height="30" preserveAspectRatio="xMidYMid meet" stroke-linejoin="round" stroke-miterlimit="2" version="1" viewBox="3.0 1.0 26.0 30.0" width="26" zoomAndPan="magnify"><g id="change1_1"><path d="M28.883,11.53l-0.002,-0.003c-0.041,-0.077 -0.094,-0.15 -0.157,-0.217l-0.017,-0.017c0,-0 -5.81,-5.81 -5.81,-5.81c-0.041,-0.068 -0.09,-0.131 -0.146,-0.188c-0.188,-0.189 -0.443,-0.295 -0.71,-0.295l-14.041,0c-0.552,0 -1,0.448 -1,1l0,24c0,0.552 0.448,1 1,1l20,0c0.552,0 1,-0.448 1,-1l0,-18c0,-0.17 -0.042,-0.33 -0.117,-0.47Zm-7.883,0.463c-0.002,0.267 0.103,0.523 0.29,0.712c0.188,0.189 0.444,0.295 0.71,0.295l5,0c0,0 0,16 0,16c-0,0 -18,0 -18,0c0,0 0,-22 0,-22c-0,0 12.034,0 12.034,0c0,-0 -0.034,4.993 -0.034,4.993Zm-1,-10.993l-16,0c-0.552,0 -1,0.448 -1,1l0,24c-0,0.552 0.448,1 1,1c0.552,0 1,-0.448 1,-1l0,-23c-0,0 15,0 15,0c0.552,-0 1,-0.448 1,-1c-0,-0.552 -0.448,-1 -1,-1Zm-8,21.429l11,-0c0.552,-0 1,-0.449 1,-1c0,-0.552 -0.448,-1 -1,-1l-11,-0c-0.552,-0 -1,0.448 -1,1c0,0.551 0.448,1 1,1Zm-0,-3.429l8,-0c0.552,-0 1,-0.448 1,-1c-0,-0.552 -0.448,-1 -1,-1l-8,-0c-0.552,-0 -1,0.448 -1,1c-0,0.552 0.448,1 1,1Zm-0,-3.429l6,0c0.552,0 1,-0.448 1,-1c-0,-0.551 -0.448,-1 -1,-1l-6,0c-0.552,0 -1,0.449 -1,1c-0,0.552 0.448,1 1,1Zm11.007,-4.571l2.579,0l-2.562,-2.561l-0.017,2.561Z"/></g></svg>