<?xml version="1.0" encoding="UTF-8" standalone="no"?><svg xmlns="http://www.w3.org/2000/svg" xmlns:xlink="http://www.w3.org/1999/xlink" fill="#000000" height="1381.9" preserveAspectRatio="xMidYMid meet" version="1" viewBox="534.2 309.0 931.6 1381.9" width="931.6" zoomAndPan="magnify"><g fill="#e6d1ff" id="change1_1"><path d="M 920.519531 1103.339844 C 917.257812 1103.339844 912.351562 1104.109375 907.597656 1107.761719 L 879.703125 1129.171875 C 870.855469 1135.949219 860.339844 1139.53125 849.316406 1139.53125 C 824.234375 1139.53125 802.847656 1120.808594 799.542969 1095.960938 L 794.957031 1061.101562 C 793.570312 1050.539062 784.507812 1042.570312 773.886719 1042.570312 C 772.054688 1042.570312 770.175781 1042.800781 768.300781 1043.308594 L 745.757812 1049.351562 L 534.210938 1518.78125 L 708.824219 1400.550781 L 803.214844 1690.960938 L 944.703125 1123.839844 L 939.03125 1114.011719 C 935.191406 1107.328125 928.261719 1103.339844 920.519531 1103.339844"/><path d="M 1029.109375 1047.730469 C 1019.511719 1048.578125 1009.808594 1049.011719 1000 1049.011719 C 990.191406 1049.011719 980.488281 1048.578125 970.890625 1047.730469 C 899.066406 1041.308594 834.003906 1011.449219 783.398438 965.820312 C 717.695312 906.589844 676.386719 820.820312 676.386719 725.390625 C 676.386719 546.671875 821.273438 401.78125 1000 401.78125 C 1178.730469 401.78125 1323.609375 546.671875 1323.609375 725.390625 C 1323.609375 820.820312 1282.300781 906.589844 1216.601562 965.820312 C 1166 1011.449219 1100.929688 1041.308594 1029.109375 1047.730469 Z M 1109.289062 1085.769531 L 1137.160156 1107.160156 C 1141.320312 1110.359375 1146.058594 1111.808594 1150.691406 1111.808594 C 1161.28125 1111.808594 1171.390625 1104.199219 1172.96875 1092.339844 L 1177.550781 1057.488281 C 1180.839844 1032.519531 1202.191406 1014.839844 1226.109375 1014.839844 C 1230.289062 1014.839844 1234.578125 1015.378906 1238.859375 1016.53125 L 1239.53125 1016.699219 L 1272.808594 1025.609375 C 1274.800781 1026.140625 1276.78125 1026.398438 1278.699219 1026.398438 C 1292.820312 1026.398438 1304.140625 1012.839844 1300.21875 998.210938 L 1291.109375 964.28125 C 1283.441406 935.640625 1302.710938 906.808594 1332.101562 902.949219 L 1366.921875 898.359375 C 1384.011719 896.101562 1392.238281 876.230469 1381.769531 862.558594 L 1360.378906 834.691406 C 1342.339844 811.160156 1349.101562 777.148438 1374.75 762.351562 L 1405.179688 744.78125 C 1420.109375 736.160156 1420.109375 714.648438 1405.179688 706.03125 L 1374.75 688.460938 C 1349.101562 673.660156 1342.339844 639.640625 1360.378906 616.121094 L 1381.769531 588.25 C 1392.238281 574.578125 1384.011719 554.710938 1366.921875 552.449219 L 1332.101562 547.859375 C 1302.710938 544 1283.441406 515.171875 1291.109375 486.53125 L 1300.21875 452.601562 C 1304.140625 437.949219 1292.820312 424.410156 1278.699219 424.410156 C 1276.78125 424.410156 1274.800781 424.660156 1272.808594 425.199219 L 1238.859375 434.28125 C 1234.578125 435.429688 1230.308594 435.96875 1226.109375 435.96875 C 1202.191406 435.96875 1180.839844 418.289062 1177.550781 393.320312 L 1172.96875 358.46875 C 1171.390625 346.589844 1161.308594 339 1150.710938 339 C 1146.058594 339 1141.320312 340.449219 1137.160156 343.648438 L 1109.289062 365.039062 C 1100.308594 371.910156 1089.839844 375.191406 1079.480469 375.191406 C 1062.628906 375.191406 1046.101562 366.53125 1036.960938 350.640625 L 1019.378906 320.210938 C 1015.078125 312.75 1007.53125 309.039062 1000 309.039062 C 992.472656 309.039062 984.921875 312.75 980.613281 320.210938 L 963.042969 350.640625 C 953.894531 366.53125 937.367188 375.191406 920.519531 375.191406 C 910.15625 375.191406 899.683594 371.910156 890.707031 365.039062 L 862.835938 343.648438 C 858.675781 340.449219 853.941406 339 849.292969 339 C 838.695312 339 828.609375 346.589844 827.03125 358.46875 L 822.445312 393.320312 C 819.160156 418.289062 797.8125 435.96875 773.886719 435.96875 C 769.6875 435.96875 765.421875 435.429688 761.136719 434.28125 L 727.183594 425.199219 C 725.203125 424.660156 723.21875 424.410156 721.300781 424.410156 C 707.183594 424.410156 695.859375 437.949219 699.78125 452.601562 L 708.886719 486.53125 C 716.566406 515.171875 697.285156 544 667.898438 547.859375 L 633.078125 552.449219 C 615.996094 554.710938 607.761719 574.578125 618.234375 588.25 L 639.625 616.121094 C 657.664062 639.640625 650.90625 673.660156 625.25 688.460938 L 594.820312 706.03125 C 579.890625 714.648438 579.890625 736.160156 594.820312 744.78125 L 625.25 762.351562 C 650.90625 777.148438 657.664062 811.160156 639.625 834.691406 L 618.234375 862.558594 C 607.761719 876.230469 615.996094 896.101562 633.078125 898.359375 L 667.898438 902.949219 C 697.285156 906.808594 716.566406 935.640625 708.886719 964.28125 L 699.78125 998.210938 C 695.859375 1012.839844 707.183594 1026.398438 721.300781 1026.398438 C 723.21875 1026.398438 725.203125 1026.140625 727.183594 1025.609375 L 760.472656 1016.699219 L 761.136719 1016.53125 C 765.421875 1015.378906 769.707031 1014.839844 773.886719 1014.839844 C 797.8125 1014.839844 819.160156 1032.519531 822.445312 1057.488281 L 827.03125 1092.339844 C 828.609375 1104.199219 838.714844 1111.808594 849.316406 1111.808594 C 853.941406 1111.808594 858.675781 1110.359375 862.835938 1107.160156 L 890.707031 1085.769531 C 899.683594 1078.898438 910.15625 1075.621094 920.519531 1075.621094 C 933.699219 1075.621094 946.664062 1080.910156 956.070312 1090.800781 C 958.691406 1093.550781 961.039062 1096.691406 963.042969 1100.140625 L 980.613281 1130.578125 C 984.921875 1138.039062 992.472656 1141.769531 1000 1141.769531 C 1007.53125 1141.769531 1015.078125 1138.039062 1019.378906 1130.578125 L 1036.960938 1100.140625 C 1038.960938 1096.691406 1041.308594 1093.550781 1043.929688 1090.800781 C 1053.328125 1080.910156 1066.300781 1075.621094 1079.480469 1075.621094 C 1089.839844 1075.621094 1100.308594 1078.898438 1109.289062 1085.769531"/><path d="M 1000 992.449219 C 852.75 992.449219 732.941406 872.640625 732.941406 725.390625 C 732.941406 578.140625 852.75 458.339844 1000 458.339844 C 1147.25 458.339844 1267.058594 578.140625 1267.058594 725.390625 C 1267.058594 872.640625 1147.25 992.449219 1000 992.449219 Z M 1000 430.609375 C 837.457031 430.609375 705.21875 562.851562 705.21875 725.390625 C 705.21875 887.929688 837.457031 1020.171875 1000 1020.171875 C 1162.539062 1020.171875 1294.78125 887.929688 1294.78125 725.390625 C 1294.78125 562.851562 1162.539062 430.609375 1000 430.609375"/><path d="M 1100.089844 757.941406 C 1097.929688 760.011719 1097.03125 763.070312 1097.480469 765.960938 L 1116.390625 876.179688 C 1117.648438 883.648438 1109.910156 889.320312 1103.148438 885.808594 L 1004.191406 833.761719 C 1001.578125 832.320312 998.429688 832.320312 995.726562 833.761719 L 896.765625 885.808594 C 890.101562 889.320312 882.355469 883.648438 883.617188 876.179688 L 902.527344 765.960938 C 902.976562 763.070312 901.988281 760.011719 899.917969 757.941406 L 819.863281 679.871094 C 814.457031 674.648438 817.429688 665.460938 824.90625 664.378906 L 935.484375 648.359375 C 938.457031 647.898438 941.066406 646.011719 942.328125 643.308594 L 991.855469 543.089844 C 995.1875 536.328125 1004.820312 536.328125 1008.148438 543.089844 L 1057.679688 643.308594 C 1058.941406 646.011719 1061.550781 647.898438 1064.519531 648.359375 L 1175.101562 664.378906 C 1182.578125 665.460938 1185.550781 674.648438 1180.148438 679.871094 L 1100.089844 757.941406"/><path d="M 1254.238281 1049.351562 L 1231.699219 1043.308594 C 1229.820312 1042.800781 1227.949219 1042.570312 1226.109375 1042.570312 C 1215.488281 1042.570312 1206.429688 1050.539062 1205.039062 1061.101562 L 1200.460938 1095.960938 C 1197.148438 1120.808594 1175.761719 1139.53125 1150.691406 1139.53125 C 1139.660156 1139.53125 1129.148438 1135.949219 1120.300781 1129.171875 L 1092.398438 1107.761719 C 1087.648438 1104.109375 1082.738281 1103.339844 1079.480469 1103.339844 C 1071.738281 1103.339844 1064.808594 1107.328125 1060.96875 1114.011719 L 1055.300781 1123.839844 L 1196.78125 1690.960938 L 1291.179688 1400.550781 L 1465.789062 1518.78125 L 1254.238281 1049.351562"/></g></svg>